<svg xmlns="http://www.w3.org/2000/svg" viewBox="0 0 25.49 30.72"><defs><style>.cls-1{fill:#ed1c24;}</style></defs><g id="Layer_2" data-name="Layer 2"><g id="Layer_15" data-name="Layer 15"><path class="cls-1" d="M23.66,4.79H22a4.22,4.22,0,0,0-3.75-2.28H15.8A2.93,2.93,0,0,0,12.91,0h-.33A2.93,2.93,0,0,0,9.69,2.51H7.23A4.22,4.22,0,0,0,3.49,4.79H1.83a1.83,1.83,0,1,0,0,3.65H3.08L4.19,28.76a2.07,2.07,0,0,0,2.07,2h7.45a.45.45,0,1,0,0-.9H6.26a1.17,1.17,0,0,1-1.17-1.11L4,8.44H6.4a.45.45,0,1,0,0-.89H1.83a.93.93,0,0,1,0-1.86H23.66a.93.93,0,1,1,0,1.85H8.49a.45.45,0,0,0,0,.9h13L20.34,28.71a1.18,1.18,0,0,1-1.17,1.11H15.82a.45.45,0,1,0,0,.9h3.35a2.09,2.09,0,0,0,2.07-2L22.4,8.44h1.26a1.83,1.83,0,1,0,0-3.65ZM12.58.9h.33a2,2,0,0,1,2,1.61H10.6A2,2,0,0,1,12.58.9ZM7.23,3.41h11a3.34,3.34,0,0,1,2.7,1.38H4.54A3.33,3.33,0,0,1,7.23,3.41Z"/><path class="cls-1" d="M12.74,10.33a1.29,1.29,0,0,0-1.29,1.29V24.75a1.3,1.3,0,0,0,2.59,0V11.62a1.3,1.3,0,0,0-1.3-1.29Zm.4,1.29V24.75a.4.4,0,0,1-.4.4.39.39,0,0,1-.39-.4V11.62a.38.38,0,0,1,.39-.39h0A.39.39,0,0,1,13.14,11.62Z"/><path class="cls-1" d="M18.53,21.06a.44.44,0,0,0,.46-.43l.26-9a1.27,1.27,0,0,0-.37-.94,1.31,1.31,0,0,0-.93-.39,1.29,1.29,0,0,0-1.3,1.26l-.37,13.12A1.3,1.3,0,0,0,17.58,26a1.29,1.29,0,0,0,1.3-1.26l.05-2.09a.45.45,0,1,0-.89,0L18,24.76a.4.4,0,0,1-.4.39.45.45,0,0,1-.29-.12.44.44,0,0,1-.11-.29l.37-13.13a.4.4,0,0,1,.69-.26.42.42,0,0,1,.11.29l-.26,9A.45.45,0,0,0,18.53,21.06Z"/><path class="cls-1" d="M7.54,10.33a1.31,1.31,0,0,0-.93.39,1.27,1.27,0,0,0-.37.94l.37,13.12a1.3,1.3,0,0,0,1.3,1.27,1.31,1.31,0,0,0,1.3-1.34L8.84,11.59A1.29,1.29,0,0,0,7.54,10.33ZM8.2,25a.45.45,0,0,1-.29.12.4.4,0,0,1-.4-.39L7.14,11.64a.42.42,0,0,1,.11-.29.4.4,0,0,1,.69.26l.37,13.13A.44.44,0,0,1,8.2,25Z"/></g></g></svg>