<?xml version="1.0" encoding="utf-8"?>
<!-- Generator: Adobe Illustrator 24.1.1, SVG Export Plug-In . SVG Version: 6.00 Build 0)  -->
<svg version="1.1" id="Layer_1" xmlns="http://www.w3.org/2000/svg" xmlns:xlink="http://www.w3.org/1999/xlink" x="0px" y="0px"
	 viewBox="0 0 512 512" style="enable-background:new 0 0 512 512;" xml:space="preserve">
<style type="text/css">
	.st0{fill:#FFCD00;}
</style>
<g>
	<g>
		<path class="st0" d="M452.5,486.6V256V99c0-4.1-3.4-7.5-7.5-7.5s-7.5,3.4-7.5,7.5v149.5h-91.7c-3.8-46.2-42.6-82.6-89.8-82.6
			s-85.9,36.4-89.8,82.6H74.5V25.4c0-5.7,4.6-10.4,10.4-10.4h47.6v73.8c0,10.2,8.3,18.5,18.5,18.5h210c10.2,0,18.5-8.3,18.5-18.5V15
			h47.6c5.7,0,10.4,4.6,10.4,10.4V73c0,4.1,3.4,7.5,7.5,7.5s7.5-3.4,7.5-7.5V25.4c0-14-11.4-25.4-25.4-25.4C424.1,0,143,0,140,0
			H84.9c-14,0-25.4,11.4-25.4,25.4c0,10,0,451.3,0,461.3c0,14,11.4,25.4,25.4,25.4H140c3,0,284.1,0,287.1,0
			C441.1,512,452.5,500.6,452.5,486.6z M364.5,15v73.8c0,1.9-1.6,3.5-3.5,3.5H151c-1.9,0-3.5-1.6-3.5-3.5V15H364.5z M270.2,248.5
			c-2.7-5.1-8-8.6-14.2-8.6c-6.2,0-11.5,3.5-14.2,8.6h-60.5c3.8-37.9,35.8-67.6,74.7-67.6s70.9,29.7,74.7,67.6H270.2z M241.8,263.5
			c2.7,5.1,8,8.6,14.2,8.6c6.2,0,11.5-3.5,14.2-8.6h60.5c-3.8,37.9-35.8,67.6-74.7,67.6s-70.9-29.7-74.7-67.6H241.8z M379.5,497
			v-73.8c0-10.2-8.3-18.5-18.5-18.5h-20c-4.1,0-7.5,3.4-7.5,7.5s3.4,7.5,7.5,7.5h20c1.9,0,3.5,1.6,3.5,3.5V497h-217v-73.8
			c0-1.9,1.6-3.5,3.5-3.5h164c4.1,0,7.5-3.4,7.5-7.5s-3.4-7.5-7.5-7.5H151c-10.2,0-18.5,8.3-18.5,18.5V497H84.9
			c-5.7,0-10.4-4.6-10.4-10.4V263.5h91.7c3.8,46.2,42.6,82.6,89.8,82.6s85.9-36.4,89.8-82.6h91.7v223.1c0,5.7-4.6,10.4-10.4,10.4
			H379.5L379.5,497z"/>
	</g>
</g>
</svg>
