<svg xmlns="http://www.w3.org/2000/svg" viewBox="0 0 72.58 75.04"><defs><style>.cls-1{fill:#006837;}.cls-2{fill:#efc926;}.cls-3,.cls-4{fill:#fff;}.cls-4{font-size:9.54px;font-family:MyriadPro-Semibold, Myriad Pro;font-weight:600;}</style></defs><g id="Layer_2" data-name="Layer 2"><g id="bg_top" data-name="bg top"><path class="cls-1" d="M36.16.14C33.22,3.53,24.74,14.81,5,8.85L0,20.38s14,5.28,6.72,24.19C-2.93,66.66,17,67.53,17,67.53S30,68.05,36.25,75V75l0,0,0,0V75c6.23-6.91,19.22-7.43,19.22-7.43s20-.87,10.3-23c-7.25-18.91,6.73-24.19,6.73-24.19l-5-11.53c-19.77,6-28.25-5.32-31.19-8.71L36.29,0Z"/><path class="cls-2" d="M37.22,24.22s-.4,1.72,2.06,4.68c3.94,3.77.58,6.38.58,6.38H32.54s-2.58-2,.23-6c0,0,.54,2.35.84,2.28s-.42-2.75,1.5-5.15c0,0-.23,2.41.8,3.09A7.18,7.18,0,0,1,37.22,24.22Z"/><path class="cls-2" d="M40.29,37.3H32.36a.83.83,0,0,1,0-1.66h7.93a.83.83,0,0,1,0,1.66Z"/><path class="cls-2" d="M38.92,39.94a3.66,3.66,0,0,0-.46.31A6.57,6.57,0,0,0,36.33,44a2.51,2.51,0,0,0-.17-.68,4.48,4.48,0,0,0-.16-.52,5.2,5.2,0,0,0-.43-1,6.83,6.83,0,0,0-1.33-1.6,7.58,7.58,0,0,0-.91-.52.83.83,0,0,1,.47-1.51h5.06a.83.83,0,0,1,.83.83C39.69,39.43,39.3,39.7,38.92,39.94Z"/><path class="cls-2" d="M54.57,48.4c-.14-1.16-.56-2.51-1.76-3a2.92,2.92,0,0,0-2.85.68c-.76.68-1.35,1.75-.6,2.67.44.54,1.61,1.3,2.34,1-3.93,1.86-4.51-3.18-1.9-5a5.18,5.18,0,0,0-.11-.87A6.19,6.19,0,0,0,44.43,39a6.69,6.69,0,0,0-6.49,2.82A8.7,8.7,0,0,0,36.38,46s-.05.32-.05.32,0-.27,0-.3a8.78,8.78,0,0,0-1.56-4.17A6.7,6.7,0,0,0,28.22,39,6.19,6.19,0,0,0,23,43.89a6.47,6.47,0,0,0-.11.87c2.61,1.8,2,6.84-1.9,5,.74.35,1.9-.41,2.34-1,.75-.92.17-2-.6-2.67a2.92,2.92,0,0,0-2.85-.68c-1.2.45-1.62,1.8-1.76,3-.2,1.62.09,3.16,1.62,4a4.55,4.55,0,0,0,4.14-.06,3.92,3.92,0,0,0,1.42-1.23,4.29,4.29,0,0,0,.53-.93c.08-.21.37-.94.21-1.15a4,4,0,0,0,4.13,1.63A1.38,1.38,0,0,1,31,52.43c-.34,1.37,1.36-1.65-.11-2.7,0,0,1.07-4.21-2.06-3.57,0,0,.79,1.84-1.21,1.9-1.51,0-1.92-1.84-2-3a3.09,3.09,0,0,1,1.12-2.49A4.21,4.21,0,0,1,29,41.67c3.26-.36,4.55,3.61,4.22,4.73-.06.21-.19.41-.27.62a9.37,9.37,0,0,0-.28.9,5.36,5.36,0,0,0-.13,2.22,3.21,3.21,0,0,0,1.26,2,4.32,4.32,0,0,0,2.61.81,4,4,0,0,0,1.75-.43,4,4,0,0,0,1.1-.79,3.39,3.39,0,0,0,.85-2.28,6.57,6.57,0,0,0-.38-2.2,8.36,8.36,0,0,0-.36-.87c-.33-1.12,1-5.09,4.22-4.73a4.21,4.21,0,0,1,2.28.89A3.09,3.09,0,0,1,47,45.05c-.05,1.17-.47,3.06-2,3-2-.06-1.22-1.9-1.22-1.9-3.12-.64-2,3.57-2,3.57-1.48,1.05.22,4.07-.12,2.7a1.38,1.38,0,0,1,.86-1.75,4,4,0,0,0,4.13-1.63c-.16.21.13.94.21,1.15a4.29,4.29,0,0,0,.53.93,3.92,3.92,0,0,0,1.42,1.23,4.55,4.55,0,0,0,4.14.06C54.48,51.56,54.77,50,54.57,48.4ZM36.85,50.86a1.8,1.8,0,0,1-2.35-1.64,1.69,1.69,0,0,1,1.7-1.69h.25a1.69,1.69,0,0,1,.4,3.33Z"/><path class="cls-3" d="M13.5,38.88h0s0,0,0,0l.31.32a0,0,0,0,1,0,.06l-.32.32s-.05,0-.08,0l-.3-.3a0,0,0,0,1,0-.07ZM15,37.67a1.43,1.43,0,0,1,1.24.5,1.62,1.62,0,0,1,.25,1,1.57,1.57,0,0,1-.24.92.9.9,0,0,1-.82.4,2.27,2.27,0,0,1-.67-.1c-.29-.08-.43-.19-.43-.31s.09-.15.26-.15l.19,0,.2,0c.32,0,.48-.31.49-.93s-.11-1-.34-1a.91.91,0,0,0-.33.2,1.74,1.74,0,0,0-.31.31l-.77-.4c-.05,0-.07,0-.07-.06s0,0,.07-.09a1.42,1.42,0,0,1,.47-.26A2.32,2.32,0,0,1,15,37.67Z"/><path class="cls-3" d="M14.29,36.38a4,4,0,0,1,.52.12,2.15,2.15,0,0,1,.49.21c.13.08.19.15.18.2s-.09.11-.27.14-1.07.08-2.48.13l-.69-.8c0-.05-.07-.08-.07-.1a.1.1,0,0,1,.07,0,6.06,6.06,0,0,1,1.13,0Z"/><path class="cls-3" d="M14.8,34.1c.76.15,1.06.58.92,1.29s-.44.84-1,.74a1.3,1.3,0,0,1-.55-.24c-.06,0-.09-.1-.08-.15s.06-.09.16-.1a.42.42,0,0,0,.3-.1,1.22,1.22,0,0,0,.16-.47c.06-.31.05-.47,0-.48s-.07,0-.13,0a3.81,3.81,0,0,0-.76.76l-.7-.52s-.06-.06-.05-.08l0-.06a1.76,1.76,0,0,1,.52-.42A1.61,1.61,0,0,1,14.8,34.1Z"/><path class="cls-3" d="M16.37,33l-.07.24a.8.8,0,0,1-1.14.58l-1-.26c-.44-.11-.73-.18-.88-.2a.18.18,0,0,1-.14-.08l-.27-.8s0-.09,0-.1,0,0,.06,0l2,.6c.22.06.36,0,.42-.2l0-.07Z"/><path class="cls-3" d="M15.56,31.6a1.71,1.71,0,0,1,.8.5.88.88,0,0,1,0,.86l-.06.17-1-.37.19-.5c0-.08,0-.14,0-.15h-.1a3,3,0,0,0-.5.22s0,0-.08,0l-.45-.63a.17.17,0,0,1,0-.07l.07,0A1.78,1.78,0,0,1,15.56,31.6Zm1.75.83s.05,0,.06,0l.19.41a0,0,0,0,1,0,.06l-.41.2a.06.06,0,0,1-.08,0l-.17-.38a0,0,0,0,1,0-.07Z"/><path class="cls-3" d="M14.21,28.32c.11.05.18.22.19.51a1.58,1.58,0,0,1-.14.82,1.06,1.06,0,0,1-.19.28,1.54,1.54,0,0,0-.18.28s0,.1,0,.17.07.13.05.16-.1.08-.2,0a1,1,0,0,1-.28-.3c-.13-.19-.17-.32-.14-.39s0,.06,0,.06.09-.08.23-.27a4.48,4.48,0,0,0,.37-.56A1.4,1.4,0,0,0,14,28.7a3,3,0,0,1,.05-.34C14.12,28.31,14.16,28.29,14.21,28.32Zm.35.95.92.45.88.44a2.76,2.76,0,0,1,.36.31,2.44,2.44,0,0,1,.32.36c.09.13.12.21.1.26s-.12.06-.29,0a16.78,16.78,0,0,1-2.37-.94l0-.82a.25.25,0,0,1,0-.1S14.49,29.24,14.56,29.27Z"/><path class="cls-3" d="M17.52,25.91s0,0,0,0l.06.39s0,0,0,.05l-.37.06.06.36s0,.05,0,.05l-.38.07s-.05,0-.06-.05l-.06-.36a.05.05,0,0,1,0-.06l.36-.07L17.08,26s0-.06.05-.06Zm2.76.16-.09.13a.62.62,0,0,1-.68.23,2.36,2.36,0,0,1-.54,1.7,1.49,1.49,0,0,1-.74.61,1.08,1.08,0,0,1-.91-.25,1.92,1.92,0,0,1-.36-.34q-.21-.25-.12-.36c.05-.08.15-.08.28,0a.7.7,0,0,0,.43.14,1.32,1.32,0,0,0,.71-.59,3.25,3.25,0,0,0,.52-1,1.62,1.62,0,0,0,0-.62.66.66,0,0,1,0-.28c0-.07.12-.08.2,0a.52.52,0,0,1,.12.13l.09.15s.1,0,.15-.11l.09-.12Z"/><path class="cls-3" d="M18.83,23.28s.05,0,.05,0v.45s0,.05,0,.05l-.45,0a.05.05,0,0,1-.06-.06l0-.42a.05.05,0,0,1,.06-.06ZM21.39,25l-.13.14a.77.77,0,0,1-.37.2.94.94,0,0,1-.32,0,1.15,1.15,0,0,1-.28.78l-.11.12-.78-.74.23-.24a.45.45,0,0,1-.28-.16,1,1,0,0,1-.3-.58.71.71,0,0,1,.14-.68.46.46,0,0,1,.48-.13.78.78,0,0,1,.4.23.86.86,0,0,1,.32.51l.21-.22ZM20,24.44a.16.16,0,0,0-.17,0,.31.31,0,0,0-.16.09.37.37,0,0,0-.1.17.16.16,0,0,0,0,.18.23.23,0,0,0,.19,0,.38.38,0,0,0,.18-.08.3.3,0,0,0,.08-.18C20,24.54,20,24.48,20,24.44Z"/><path class="cls-3" d="M19.74,22.25s.05,0,.05.05l0,.44s0,.05-.05.05h-.45s-.05,0-.05-.06V22.3a.05.05,0,0,1,.06-.06Zm1.52,1.22a1.73,1.73,0,0,1,.49.81.87.87,0,0,1-.37.77l-.13.13-.74-.78L20.9,24c.07-.06.09-.11.05-.15a.19.19,0,0,0-.09,0,4.44,4.44,0,0,0-.55,0s0,0,0-.06L20.14,23v-.07h.08A1.84,1.84,0,0,1,21.26,23.47Z"/><path class="cls-3" d="M26,21.57l-.13.09a.62.62,0,0,1-.71,0A2.41,2.41,0,0,1,24,23a1.42,1.42,0,0,1-.91.3,1.07,1.07,0,0,1-.76-.55,1.88,1.88,0,0,1-.22-.45c-.06-.2-.06-.32,0-.37s.17,0,.27.1a.65.65,0,0,0,.35.28,1.24,1.24,0,0,0,.87-.29,3.15,3.15,0,0,0,.85-.8,1.43,1.43,0,0,0,.23-.57c0-.16.05-.26.08-.27s.13,0,.19.06a.53.53,0,0,1,.06.16.86.86,0,0,1,0,.17c.05,0,.11,0,.19,0l.12-.08Zm-2.52-1.13a0,0,0,0,1,0,0l-.08.39s0,0-.05,0L23,20.84l-.07.36s0,0-.05,0l-.39-.07s0,0,0-.06l.07-.36s0,0,.06,0l.36.06.06-.34s0-.06.07-.05Z"/><path class="cls-3" d="M27.68,20.86l-.2.1c-.39.19-.69.19-.89,0a.68.68,0,0,1-.13.4.94.94,0,0,1-.34.25l-.32.15-.46-1,.28-.13c.21-.1.32-.17.34-.22a1.36,1.36,0,0,0-.41-.16h-.16s-.06,0-.08-.09a.52.52,0,0,1,0-.47,1,1,0,0,1,.48-.47.88.88,0,0,1,.5-.09.47.47,0,0,1,.4.27.59.59,0,0,1,0,.38s0,.15-.11.33A1.07,1.07,0,0,0,27,20l.26-.12Z"/><path class="cls-3" d="M27.58,18.13a0,0,0,0,1,0,.07l-.18.4a0,0,0,0,1-.06,0l-.42-.18s0,0,0-.08l.17-.39s0,0,.07,0Zm1.33,2.28-.17.06a.56.56,0,0,1-.6-.1.61.61,0,0,1-.41.49l-.22.09-.38-1,.14-.06a.37.37,0,0,0,.27-.27,1,1,0,0,0,0-.29.18.18,0,0,1,.1-.2c.07,0,.13,0,.19.09a1.58,1.58,0,0,0,.17.23.36.36,0,0,0,.37,0l.17-.07Z"/><path class="cls-3" d="M31.2,18.16a1.55,1.55,0,0,1-.09,1,1.51,1.51,0,0,1-1.46.9.74.74,0,0,1-.43-.11.53.53,0,0,1-.35.41l-.2.06-.27-1,.16,0a.27.27,0,0,0,.19-.2s0-.12,0-.28,0-.16.08-.17.13.05.23.21.18.22.25.21a2.87,2.87,0,0,0,.17-.34,3.31,3.31,0,0,1,.36-.64,1.06,1.06,0,0,1,.57-.45.57.57,0,0,1,.51.08A.68.68,0,0,1,31.2,18.16Zm-.5.5c-.05-.18-.17-.24-.38-.18a1.36,1.36,0,0,0-.66.69l.21-.06a2.76,2.76,0,0,0,.65-.25C30.65,18.77,30.71,18.71,30.7,18.66Z"/><path class="cls-3" d="M36.18,19.29H36c-.05,0-.1,0-.17-.11a.94.94,0,0,0-.27-.2,1.39,1.39,0,0,0-.62-.08,1.16,1.16,0,0,0-.37.07c-.06,0-.09.05-.09.07s.09.05.27,0a2.49,2.49,0,0,1,.6,0,.4.4,0,0,1,.34.4c0,.67-.5,1-1.59,1.09a1.54,1.54,0,0,1-1.3-.38,1.28,1.28,0,0,1-.23-.72,2.12,2.12,0,0,1,.1-.68q.12-.37.27-.39c.13,0,.19.06.2.21a2,2,0,0,1,0,.21.89.89,0,0,0,0,.22c0,.44.41.65,1.19.61a4.61,4.61,0,0,0,.94-.12c.09,0,.13,0,.12-.07s0,0-.12,0h-.44a1.59,1.59,0,0,1-.49,0,.28.28,0,0,1-.24-.29c0-.32.2-.57.66-.72a3.47,3.47,0,0,1,1.06-.19h.3Z"/><path class="cls-3" d="M38.6,18.3a2.18,2.18,0,0,1-.2.75c-.14.31-.33.46-.55.44a.57.57,0,0,1-.44-.35c-.11.19-.24.29-.41.27a.46.46,0,0,1-.43-.36.45.45,0,0,1-.44.28h-.19l.1-1.06.18,0a.24.24,0,0,0,.24-.11l.09-.23c.05-.1.11-.14.17-.14a.15.15,0,0,1,.13.15l0,.26a.24.24,0,0,0,.23.15.18.18,0,0,0,.2-.12l.08-.24a.14.14,0,0,1,.16-.12.15.15,0,0,1,.13.15l0,.27a.24.24,0,0,0,.23.16c.15,0,.22,0,.24-.14a.63.63,0,0,0,0-.19l0-.18.33-.3s.06,0,.07,0A1.75,1.75,0,0,1,38.6,18.3ZM37,16.86a0,0,0,0,1,0,0l.31-.26s0,0,0,0l.25.29.3-.24s0,0,0,0l.25.29s0,0,0,.07l-.29.24s0,0-.06,0l-.26-.29h0l-.28.23s0,0-.07,0Zm.34-.5s0,0,0-.05l.3-.26a0,0,0,0,1,.06,0l.26.3s0,0,0,.07l-.28.24a0,0,0,0,1-.07,0Z"/><path class="cls-3" d="M40.49,19.76A1.91,1.91,0,0,1,39.76,21a.19.19,0,0,1-.15,0l-1.09-.22c-.12,0-.18-.09-.16-.2a.14.14,0,0,1,.11-.1,8.29,8.29,0,0,0,.85-.3q.66-.28.69-.45c0-.09-.11-.34-.39-.73l.52-.69s.06,0,.09,0a1.5,1.5,0,0,1,.29.6A2.28,2.28,0,0,1,40.49,19.76Zm0-2.24s0,0,0,.06l-.38.25s0,0-.06,0l-.26-.37s0-.05,0-.08l.35-.23a0,0,0,0,1,.08,0Z"/><path class="cls-3" d="M42.45,20.38a1.91,1.91,0,0,1-.85,1.17.19.19,0,0,1-.15,0l-1.06-.33c-.12,0-.17-.11-.14-.21a.14.14,0,0,1,.12-.1,5.57,5.57,0,0,0,.87-.21c.46-.14.7-.27.74-.38s-.08-.34-.32-.76l.59-.63s.07,0,.09,0a1.58,1.58,0,0,1,.23.62A2.14,2.14,0,0,1,42.45,20.38Z"/><path class="cls-3" d="M44.41,20.92a2.41,2.41,0,0,1-1,1.34.2.2,0,0,1-.15,0l-1-.44c-.12-.05-.16-.12-.12-.22a.15.15,0,0,1,.13-.09q.33,0,.84-.09c.45-.07.7-.15.74-.23a2.32,2.32,0,0,1-.55-.3.54.54,0,0,1-.07-.65,2,2,0,0,1,.43-.66c.25-.26.48-.34.71-.24s.36.35.34.73A2.78,2.78,0,0,1,44.41,20.92Zm-.29-.57a.2.2,0,0,0,0-.18.42.42,0,0,0-.14-.13c-.14-.06-.23,0-.27.07s.05.11.21.18S44.1,20.37,44.12,20.35Z"/><path class="cls-3" d="M48.16,23.79,48,23.71s-.06-.09-.08-.19a.75.75,0,0,0-.09-.32,1.5,1.5,0,0,0-.46-.44,1,1,0,0,0-.33-.16.13.13,0,0,0-.11,0s0,.1.19.2a3.29,3.29,0,0,1,.47.36.41.41,0,0,1,0,.53c-.37.57-1,.54-1.93-.06a1.55,1.55,0,0,1-.81-1.08,1.23,1.23,0,0,1,.24-.71,2,2,0,0,1,.48-.49q.33-.24.45-.15a.18.18,0,0,1,0,.28l-.14.16a1.1,1.1,0,0,0-.13.17c-.25.37,0,.77.59,1.2a5.15,5.15,0,0,0,.83.47c.08,0,.13,0,.14,0s0-.06-.07-.11L47,23.12a1.58,1.58,0,0,1-.38-.3.29.29,0,0,1,0-.38c.17-.27.49-.33,1-.19a3.9,3.9,0,0,1,1,.48l.25.16Z"/><path class="cls-3" d="M49.7,25.26l-.14-.12a1,1,0,0,1-.25-.46,1.91,1.91,0,0,1-.05-.53,1,1,0,0,1-1.07-.24l-.27-.24.72-.79.19.16a1.53,1.53,0,0,0,.37.28h.08a.15.15,0,0,0,0-.08c0-.21,0-.49,0-.83l.48-.37h0l1.69.76h0l0,.05-.47.44s0,0,0,0h-.06L50,22.89l0,.91a.73.73,0,0,0,.25.5l.19.17Zm2.12-2.71-.16.14-1.74-.77.2-.16Z"/><path class="cls-3" d="M50.58,26.24l-.13-.13a.63.63,0,0,1-.13-.61.58.58,0,0,1-.61-.19l-.16-.16.78-.74.1.11a.41.41,0,0,0,.36.15,1.27,1.27,0,0,0,.26-.12.18.18,0,0,1,.23,0c0,.05,0,.12,0,.21a2.28,2.28,0,0,0-.14.24.34.34,0,0,0,.11.35l.13.13Zm1.6-2.1s0,.05,0,0h-.44s0,0,0-.06v-.45s0-.05.06-.05h.42a.05.05,0,0,1,.06.06Z"/><path class="cls-3" d="M52.58,27.32a1.19,1.19,0,0,1-.51.21.54.54,0,0,1-.57-.15,1.38,1.38,0,0,1-.16-.7,1,1,0,0,1-.63-.3l-.26-.33.84-.66.17.21a.48.48,0,0,1,.6-.25v-.16l.75-.2c.08,0,.14,0,.16,0s0,.06,0,.14a4.67,4.67,0,0,1,.07,1.18A1.39,1.39,0,0,1,52.58,27.32Zm-.42-1.13a.19.19,0,0,0,.07-.16.31.31,0,0,0,0-.17.5.5,0,0,0-.16-.11.19.19,0,0,0-.18,0,.22.22,0,0,0,0,.18.38.38,0,0,0,.06.19.28.28,0,0,0,.14.09C52.08,26.22,52.13,26.22,52.16,26.19Zm.06.83c.09-.06.12-.23.11-.51l0,0a.34.34,0,0,1-.35.08c0,.05,0,.13,0,.22A.44.44,0,0,0,52,27C52.07,27.1,52.14,27.09,52.22,27Z"/><path class="cls-3" d="M53.09,29.81,53,29.7a.39.39,0,0,1,0-.18l-.18.11a1.37,1.37,0,0,1-.57.18,1.77,1.77,0,0,1-.51,0,.2.2,0,0,1-.13-.09L51,28.79c-.07-.11-.06-.2,0-.25a.14.14,0,0,1,.15,0,5.35,5.35,0,0,0,.8.4c.44.2.71.26.8.2s.17-.31.26-.79l.86-.09c.05,0,.07,0,.06.06,0,.21-.08.35-.09.43a.61.61,0,0,0,.08.41l0,.07Z"/><path class="cls-3" d="M55,30.47a1.21,1.21,0,0,1-1.84-.58L53,29.62l1-.49.13.27a2.42,2.42,0,0,0,.48.76.09.09,0,0,0,.1,0s0,0,0-.08l0,0a1.23,1.23,0,0,1-.2-.31c-.18-.36-.13-.62.17-.76a1.38,1.38,0,0,1,.65-.15.58.58,0,0,1,.56.26.75.75,0,0,1-.17.84A2.25,2.25,0,0,1,55,30.47Zm.23-.73a.18.18,0,0,0,.07-.17.33.33,0,0,0,0-.18.4.4,0,0,0-.1-.12.14.14,0,0,0-.15,0s0,.11,0,.27S55.15,29.75,55.18,29.74Zm1.39-.64a0,0,0,0,1-.06,0L56.08,29a0,0,0,0,1,0-.06l.14-.44s0,0,.07,0l.4.13s.05,0,0,.08Z"/><path class="cls-3" d="M54.81,34l-.08-.23A.65.65,0,0,1,55,33c-.17,0-.27-.05-.29-.13a1.32,1.32,0,0,1-.06-.51c0-.28.1-.44.25-.49a.89.89,0,0,1,.58,0s.24.13.67.38l.18-.11.7.34s0,0,0,0,0,0,0,.06l-1.08.6c-.2.11-.27.23-.23.36l0,.14Zm.66-1.29.42-.28c-.23-.15-.37-.22-.44-.2S55.39,32.44,55.47,32.74Z"/><path class="cls-3" d="M55.38,36.66l0-.18a.55.55,0,0,1,.2-.5c-.23-.1-.36-.22-.38-.34a.37.37,0,0,1,.05-.26.68.68,0,0,1,.17-.21c-.23-.09-.37-.2-.39-.32a.46.46,0,0,1,.22-.47A.58.58,0,0,1,54.8,34l0-.18,1.05-.23,0,.18A.25.25,0,0,0,56,34l.26,0c.11,0,.18.06.19.12s0,.14-.11.19l-.24.11a.22.22,0,0,0-.1.25.18.18,0,0,0,.18.15h.27a.17.17,0,0,1,.17.13c0,.07,0,.13-.11.17l-.24.11a.2.2,0,0,0,.08.37h.26a.15.15,0,0,1,.17.13c0,.07,0,.12-.1.17l-.24.12a.2.2,0,0,0-.09.23l0,.18Z"/><path class="cls-3" d="M56.78,38.82a2.18,2.18,0,0,1-.77,0c-.33-.09-.51-.25-.52-.47a.53.53,0,0,1,.26-.49.46.46,0,0,1-.34-.36.44.44,0,0,1,.28-.48.45.45,0,0,1-.35-.4l0-.18,1-.09,0,.18a.24.24,0,0,0,.15.22l.24,0c.1,0,.16.07.16.13s0,.13-.12.16l-.24.09a.24.24,0,0,0-.11.26.18.18,0,0,0,.15.17l.25,0a.15.15,0,0,1,.15.14c0,.07,0,.12-.13.15l-.25.09a.25.25,0,0,0-.12.26c0,.14.07.21.17.2a.41.41,0,0,0,.19,0l.17-.09.36.27s0,.06,0,.08A1.74,1.74,0,0,1,56.78,38.82Z"/><path class="cls-3" d="M55.48,41.14v-.25a2,2,0,0,1-1.16-.45.16.16,0,0,1,0-.14l0-1.11c0-.13.06-.2.17-.19a.13.13,0,0,1,.12.08,7.25,7.25,0,0,0,.4.75c.23.39.39.59.49.6a2.23,2.23,0,0,1,.07-.62.54.54,0,0,1,.59-.3,2,2,0,0,1,.77.15c.32.14.48.32.48.57s-.28.56-.83.65v.28Zm.89-.72c.05,0,.1,0,.14-.11a.27.27,0,0,0,.07-.18c0-.14,0-.21-.16-.22s-.09.09-.09.27S56.34,40.42,56.37,40.42Z"/><path class="cls-3" d="M56,42.91a.72.72,0,0,1-.5-.26.65.65,0,0,1-.17-.53.72.72,0,0,1,.45-.58c-.23-.14-.33-.3-.31-.48l0-.15,1.07.13v.08c0,.2,0,.31.14.33a.82.82,0,0,1,.42.19.64.64,0,0,1,.21.59.71.71,0,0,1-.55.61A1.65,1.65,0,0,1,56,42.91Zm.23-.34a.88.88,0,0,0,.34,0c.14-.05.22-.11.23-.2a.11.11,0,0,0,0-.12.19.19,0,0,0-.12-.07.89.89,0,0,0-.36,0q-.23.07-.24.24C56,42.5,56.08,42.55,56.22,42.57Z"/><text class="cls-4" transform="translate(25.05 63.11)">SNAC</text></g></g></svg>