<?xml version="1.0" encoding="utf-8"?>
<!-- Generator: Adobe Illustrator 24.1.1, SVG Export Plug-In . SVG Version: 6.00 Build 0)  -->
<svg version="1.1" id="Layer_1" xmlns="http://www.w3.org/2000/svg" xmlns:xlink="http://www.w3.org/1999/xlink" x="0px" y="0px"
	 viewBox="0 0 1080 1080" style="enable-background:new 0 0 1080 1080;" xml:space="preserve">
<style type="text/css">
	.st0{fill:#009245;}
	.st1{fill:#FFFFFF;}
	.st2{fill:url(#SVGID_1_);}
	.st3{fill:url(#SVGID_2_);}
	.st4{fill:none;stroke:#154691;stroke-miterlimit:10;}
	.st5{fill:url(#SVGID_3_);}
	.st6{font-family:'MyriadPro-Regular';}
	.st7{font-size:43.4498px;}
</style>
<g>
	
		<image style="overflow:visible;opacity:0.1;" width="459" height="474" xlink:href="C78FD298.png"  transform="matrix(1 0 0 1 304 297)">
	</image>
	<g>
		<path class="st0" d="M531.6,321.5c-16.6,19.1-64.6,82.9-176.3,49.3l-28.1,65.2c0,0,79,29.9,38,136.8
			c-54.6,124.9,58.3,129.9,58.3,129.9s73.5,2.9,108.7,42l0,0.5c0.1-0.1,0.1-0.2,0.2-0.2c0.1,0.1,0.1,0.2,0.2,0.2l0-0.5
			c35.2-39,108.7-42,108.7-42s112.8-4.9,58.3-129.9c-41-106.9,38-136.8,38-136.8l-28.1-65.2c-111.8,33.7-159.7-30.1-176.3-49.3
			l-0.7-0.8L531.6,321.5z"/>
	</g>
</g>
<path class="st1" d="M537.6,457.6c0,0-2.3,9.7,11.6,26.5c22.3,21.3,3.3,36.1,3.3,36.1h-41.3c0,0-14.6-11.1,1.3-33.8
	c0,0,3.1,13.3,4.8,12.9s-2.4-15.5,8.5-29.1c0,0-1.3,13.7,4.5,17.5C529.1,473.9,532.1,464.5,537.6,457.6z"/>
<g>
	<linearGradient id="SVGID_1_" gradientUnits="userSpaceOnUse" x1="505.396" y1="526.904" x2="559.6313" y2="526.904">
		<stop  offset="0" style="stop-color:#FFFFFF"/>
		<stop  offset="1" style="stop-color:#FFFFFF"/>
	</linearGradient>
	<path class="st2" d="M554.9,531.6h-44.9c-2.6,0-4.7-2.1-4.7-4.7c0-2.6,2.1-4.7,4.7-4.7h44.9c2.6,0,4.7,2.1,4.7,4.7
		C559.6,529.5,557.5,531.6,554.9,531.6z"/>
</g>
<g>
	<linearGradient id="SVGID_2_" gradientUnits="userSpaceOnUse" x1="513.5726" y1="552.9437" x2="551.5807" y2="552.9437">
		<stop  offset="0" style="stop-color:#FFFFFF"/>
		<stop  offset="1" style="stop-color:#FFFFFF"/>
	</linearGradient>
	<path class="st3" d="M547.2,546.5c-1,0.6-1.9,1.2-2.6,1.8c-6.2,5.4-10.5,13-12.1,21c0.2-1-0.7-2.9-0.9-3.8c-0.3-1-0.5-2-0.9-3
		c-0.7-1.9-1.5-3.7-2.5-5.4c-2-3.4-4.6-6.4-7.5-9c-1.6-1.5-3.5-1.8-5.2-2.9c-1.2-0.9-2-2.3-2-3.8c0-2.6,2.1-4.7,4.7-4.7h28.6
		c2.6,0,4.7,2.1,4.7,4.7C551.6,543.6,549.3,545.2,547.2,546.5z"/>
</g>
<path class="st4" d="M532.2,584.5"/>
<linearGradient id="SVGID_3_" gradientUnits="userSpaceOnUse" x1="429.0611" y1="580.641" x2="636.0082" y2="580.641">
	<stop  offset="0" style="stop-color:#FFFFFF"/>
	<stop  offset="1" style="stop-color:#FFFFFF"/>
</linearGradient>
<path class="st5" d="M635.7,594.3c-0.8-6.5-3.2-14.2-9.9-16.7c-5.6-2.1-11.8,0-16.1,3.8c-4.3,3.8-7.6,9.9-3.4,15.1
	c2.5,3.1,9.1,7.4,13.3,5.4c-22.2,10.5-25.5-18-10.8-28.2c-0.1-1.7-0.3-3.3-0.6-4.9c-2.8-14.4-15.3-25.7-29.7-27.5
	c-14.7-1.8-28.2,3.8-36.7,15.9c-4.9,7-8,15-8.8,23.4c0,0.2-0.3,1.8-0.3,1.8s-0.3-1.5-0.3-1.6c-0.8-8.5-3.9-16.6-8.8-23.6
	c-8.5-12.2-22-17.8-36.7-15.9c-14.4,1.8-27,13-29.7,27.5c-0.3,1.6-0.5,3.3-0.6,4.9c14.7,10.2,11.5,38.7-10.8,28.2
	c4.2,2,10.7-2.3,13.3-5.4c4.2-5.2,0.9-11.3-3.4-15.1c-4.3-3.8-10.6-5.9-16.1-3.8c-6.8,2.5-9.1,10.1-9.9,16.7
	c-1.1,9.2,0.5,17.9,9.2,22.8c7,4,16.4,3.2,23.4-0.4c3.3-1.7,5.9-4,8-7c1.2-1.6,2.2-3.4,3-5.3c0.5-1.2,2.1-5.3,1.2-6.5
	c5.9,7.7,13.7,11,23.4,9.2c0,0,6.8,2.2,4.9,9.9c-1.9,7.7,7.6-9.3-0.7-15.3c0,0,6.1-23.8-11.6-20.2c0,0,4.5,10.4-6.9,10.8
	c-8.5,0.3-10.9-10.4-11.2-17c-0.3-5.4,2.2-10.6,6.3-14.1c3.6-3.1,8.3-4.5,12.9-5.1c18.4-2,25.7,20.4,23.9,26.7
	c-0.3,1.2-1.1,2.3-1.5,3.5c-0.6,1.7-1.2,3.4-1.6,5.1c-1,4.1-1.5,8.4-0.7,12.5c0.8,4.6,3.3,8.7,7.1,11.4c4.3,3.1,9.5,4.7,14.8,4.6
	c3.4-0.1,6.8-0.9,9.9-2.5c2.3-1.2,4.5-2.6,6.2-4.5c3.3-3.5,4.7-8.2,4.8-12.9c0.1-4.2-0.8-8.5-2.2-12.5c-0.6-1.7-1.2-3.3-2-4.9
	c-1.8-6.3,5.5-28.7,23.9-26.7c4.7,0.5,9.3,2,12.9,5.1c4.1,3.5,6.6,8.7,6.3,14.1c-0.3,6.6-2.7,17.3-11.2,17
	c-11.3-0.3-6.9-10.8-6.9-10.8c-17.6-3.6-11.6,20.2-11.6,20.2c-8.3,6,1.3,23-0.7,15.3c-1.9-7.7,4.9-9.9,4.9-9.9
	c9.7,1.8,17.4-1.4,23.4-9.2c-0.9,1.2,0.7,5.3,1.2,6.5c0.7,1.9,1.8,3.6,3,5.3c2.2,3,4.7,5.3,8,7c7,3.5,16.4,4.3,23.4,0.4
	C635.2,612.2,636.8,603.5,635.7,594.3z M535.5,608.3c-6.3,1.5-13.3-2.2-13.3-9.3c0-5.3,4.3-9.6,9.6-9.6h1.5c5.3,0,9.6,4.3,9.6,9.6
	C542.8,603.4,539.8,607.2,535.5,608.3z"/>
<g>
	<path class="st1" d="M403.5,540.5c0.1-0.1,0.1-0.1,0.2-0.1c0.1,0,0.1,0,0.2,0.1l1.8,1.8c0.1,0.1,0.1,0.3,0,0.4l-1.8,1.8
		c-0.1,0.2-0.3,0.1-0.5,0l-1.7-1.7c-0.1-0.2-0.1-0.3,0-0.4L403.5,540.5z M412.1,533.7c3.4,0,5.7,1,7,2.8c1,1.3,1.4,3.2,1.4,5.7
		c0,2.2-0.5,3.9-1.4,5.2c-1,1.5-2.6,2.3-4.6,2.2c-1.2,0-2.5-0.2-3.8-0.6c-1.6-0.5-2.5-1.1-2.5-1.8c0-0.6,0.5-0.9,1.5-0.8
		c0.2,0,0.6,0.1,1.1,0.2c0.5,0.1,0.9,0.2,1.1,0.2c1.8,0,2.8-1.7,2.8-5.2c0-3.6-0.6-5.4-1.9-5.4c-0.3,0-0.9,0.4-1.9,1.2
		c-0.9,0.7-1.5,1.3-1.8,1.7l-4.3-2.3c-0.3-0.1-0.4-0.3-0.4-0.3c0-0.1,0.1-0.2,0.4-0.5c0.6-0.5,1.5-1,2.7-1.5
		C409,534,410.6,533.7,412.1,533.7z"/>
	<path class="st1" d="M408,526.4c0.8,0.1,1.8,0.3,2.9,0.7c1.2,0.4,2.1,0.8,2.8,1.1c0.7,0.5,1.1,0.9,1,1.2c0,0.4-0.5,0.6-1.5,0.8
		c-1.4,0.2-6.1,0.5-14.1,0.7l-3.9-4.5c-0.2-0.3-0.4-0.5-0.4-0.6c0-0.1,0.1-0.1,0.4-0.1c1.8-0.2,3.9-0.2,6.4,0
		C402.4,525.8,404.5,526,408,526.4z"/>
	<path class="st1" d="M410.8,513.5c4.3,0.9,6,3.3,5.2,7.3c-0.7,3.4-2.5,4.8-5.4,4.2c-1.2-0.2-2.2-0.7-3.1-1.3
		c-0.4-0.3-0.5-0.6-0.4-0.9c0.1-0.3,0.4-0.5,0.9-0.5c0.9-0.1,1.4-0.3,1.7-0.6c0.3-0.4,0.6-1.3,0.9-2.7c0.3-1.7,0.3-2.6-0.1-2.7
		c-0.2,0-0.4,0.1-0.8,0.3c-1.2,0.7-2.6,2.2-4.3,4.3l-4-2.9c-0.2-0.2-0.3-0.3-0.3-0.4c0-0.1,0.1-0.2,0.2-0.3c0.7-0.9,1.7-1.7,3-2.4
		C406.4,513.5,408.6,513.1,410.8,513.5z"/>
	<path class="st1" d="M419.7,507l-0.4,1.4c-1,3.2-3.1,4.3-6.4,3.3c-1.4-0.4-3.3-0.9-5.7-1.5c-2.5-0.6-4.1-1-5-1.1
		c-0.4-0.1-0.7-0.2-0.8-0.5l-1.5-4.5c-0.1-0.3-0.1-0.5-0.1-0.6c0-0.1,0.1-0.1,0.4-0.1l11.3,3.4c1.2,0.4,2,0,2.4-1.1l0.1-0.4
		L419.7,507z"/>
	<path class="st1" d="M415.1,499.4c2.3,0.9,3.8,1.8,4.6,2.8c0.8,1.2,0.9,2.8,0.1,4.9l-0.4,1l-5.7-2.1l1-2.8c0.2-0.5,0.1-0.8-0.1-0.9
		c-0.1,0-0.3,0-0.6,0c-0.9,0.3-1.8,0.7-2.8,1.2c-0.2,0.1-0.3,0-0.5-0.2l-2.5-3.6c-0.1-0.2-0.2-0.3-0.2-0.4c0-0.1,0.1-0.2,0.4-0.2
		C410.5,498.4,412.7,498.5,415.1,499.4z M425,504c0.2-0.1,0.3-0.1,0.3,0.1l1.1,2.3c0.1,0.2,0,0.3-0.1,0.4l-2.3,1.1
		c-0.2,0.1-0.3,0-0.4-0.2l-1-2.2c-0.1-0.2,0-0.3,0.2-0.4L425,504z"/>
	<path class="st1" d="M407.5,480.8c0.6,0.3,1,1.3,1.1,2.9c0.1,1.7-0.2,3.3-0.8,4.7c-0.2,0.4-0.5,0.9-1.1,1.6c-0.5,0.7-0.9,1.2-1,1.6
		c-0.1,0.2,0,0.6,0.3,1c0.3,0.4,0.4,0.7,0.3,0.9c-0.2,0.4-0.6,0.4-1.2,0.2c-0.4-0.2-0.9-0.8-1.6-1.7c-0.7-1-1-1.8-0.8-2.2
		c-0.1,0.2-0.2,0.4-0.1,0.4c0.1,0,0.5-0.5,1.3-1.5c1.1-1.5,1.8-2.6,2.1-3.2c0.2-0.5,0.4-1.3,0.5-2.3c0.1-1.1,0.2-1.7,0.3-1.9
		C407,480.8,407.2,480.7,407.5,480.8z M409.4,486.2c1.3,0.6,3,1.4,5.2,2.5c2.8,1.4,4.4,2.2,5,2.5c0.6,0.4,1.3,0.9,2.1,1.7
		c0.8,0.8,1.4,1.4,1.8,2c0.5,0.7,0.7,1.2,0.6,1.5c-0.1,0.3-0.7,0.4-1.6,0.2c-1.4-0.2-5.9-2-13.4-5.3l-0.2-4.7c0-0.2,0-0.4,0-0.5
		C408.9,486,409.1,486,409.4,486.2z"/>
	<path class="st1" d="M426.2,467.2c0.1,0,0.2,0,0.2,0.2l0.4,2.2c0,0.2,0,0.3-0.2,0.3l-2.1,0.4l0.3,2c0,0.2,0,0.2-0.2,0.3l-2.2,0.4
		c-0.2,0-0.3-0.1-0.3-0.3l-0.4-2c0-0.2,0-0.3,0.2-0.3l2-0.4l-0.3-2c0-0.2,0.1-0.3,0.2-0.4L426.2,467.2z M441.8,468.1l-0.5,0.7
		c-0.9,1.2-2.1,1.6-3.8,1.3c0.4,2.9-0.6,6.1-3.1,9.6c-1.4,1.9-2.8,3-4.2,3.4c-1.6,0.4-3.3-0.1-5.1-1.4c-0.7-0.5-1.4-1.2-2-1.9
		c-0.8-0.9-1-1.6-0.7-2c0.3-0.5,0.9-0.4,1.6,0c1,0.6,1.8,0.9,2.4,0.8c1.2-0.2,2.5-1.3,4-3.3c1.6-2.2,2.5-4.1,2.9-5.9
		c0.3-1.1,0.3-2.3,0.1-3.5c-0.2-0.9-0.2-1.5-0.1-1.6c0.3-0.4,0.7-0.4,1.1-0.1c0.2,0.1,0.4,0.4,0.6,0.7c0.3,0.4,0.4,0.7,0.5,0.9
		c0.3,0,0.6-0.2,0.9-0.6l0.5-0.7L441.8,468.1z"/>
	<path class="st1" d="M433.6,452.3c0.2,0,0.3,0.1,0.3,0.3l0.1,2.5c0,0.2-0.1,0.3-0.3,0.3l-2.5,0.1c-0.2,0-0.3-0.1-0.3-0.3l-0.1-2.4
		c0-0.2,0.1-0.3,0.3-0.3L433.6,452.3z M448.1,462.2l-0.7,0.8c-0.5,0.5-1.2,0.9-2,1.1c-0.7,0.2-1.3,0.3-1.8,0.2
		c-0.1,1.9-0.6,3.4-1.6,4.4l-0.6,0.7l-4.4-4.2l1.3-1.4c-0.4,0-0.9-0.3-1.6-0.9c-0.8-0.8-1.4-1.9-1.7-3.3c-0.3-1.6-0.1-2.9,0.8-3.8
		c0.7-0.8,1.6-1,2.7-0.7c0.9,0.2,1.6,0.6,2.3,1.3c1.1,1,1.7,2,1.8,2.9l1.2-1.3L448.1,462.2z M440.1,458.9c-0.2-0.2-0.5-0.2-1-0.1
		c-0.4,0.1-0.7,0.3-0.9,0.5c-0.3,0.3-0.4,0.6-0.5,1c-0.1,0.5-0.1,0.8,0.1,1c0.2,0.2,0.5,0.2,1,0.1c0.5-0.1,0.8-0.3,1-0.4
		c0.2-0.3,0.4-0.6,0.5-1C440.4,459.5,440.4,459.1,440.1,458.9z"/>
	<path class="st1" d="M438.7,446.5c0.2,0,0.3,0.1,0.3,0.3l-0.1,2.5c0,0.2-0.1,0.3-0.3,0.3l-2.5,0c-0.2,0-0.3-0.1-0.3-0.4l0.1-2.4
		c0-0.2,0.1-0.3,0.3-0.3L438.7,446.5z M447.3,453.4c1.7,1.8,2.6,3.3,2.8,4.5c0.2,1.4-0.5,2.9-2.1,4.4l-0.8,0.7l-4.1-4.4l2.2-2.1
		c0.4-0.4,0.5-0.6,0.3-0.9c-0.1-0.1-0.3-0.2-0.5-0.2c-0.9-0.1-1.9-0.2-3.1-0.2c-0.2,0-0.3-0.1-0.3-0.3l-0.6-4.3c0-0.2,0-0.4,0-0.4
		c0.1-0.1,0.2-0.1,0.4,0C443.6,450.5,445.6,451.6,447.3,453.4z"/>
	<path class="st1" d="M474.1,442.7l-0.7,0.5c-1.2,0.8-2.6,0.8-4-0.1c-0.6,2.9-2.7,5.5-6.3,7.9c-2,1.3-3.7,1.9-5.1,1.7
		c-1.6-0.2-3-1.2-4.3-3.1c-0.5-0.8-0.9-1.6-1.2-2.5c-0.4-1.1-0.4-1.8,0.1-2.1c0.5-0.3,1-0.1,1.5,0.6c0.7,0.9,1.4,1.5,2,1.6
		c1.2,0.3,2.8-0.3,4.9-1.7c2.2-1.5,3.8-3,4.8-4.5c0.6-1,1.1-2,1.3-3.2c0.2-0.9,0.3-1.5,0.4-1.6c0.4-0.3,0.8-0.1,1.1,0.3
		c0.1,0.2,0.2,0.5,0.3,0.9c0.1,0.4,0.2,0.8,0.2,1c0.3,0.1,0.6,0,1-0.3l0.7-0.5L474.1,442.7z M459.8,436.3c0.1,0,0.2,0.1,0.2,0.3
		l-0.4,2.2c0,0.2-0.1,0.2-0.3,0.2l-2-0.4l-0.4,2c0,0.2-0.1,0.2-0.3,0.2l-2.2-0.4c-0.2,0-0.2-0.2-0.2-0.4l0.4-2
		c0-0.2,0.2-0.3,0.3-0.2l2,0.4l0.4-2c0-0.2,0.2-0.3,0.4-0.2L459.8,436.3z"/>
	<path class="st1" d="M483.6,438.7l-1.1,0.5c-2.2,1.1-3.9,1.1-5,0c-0.1,0.9-0.3,1.7-0.8,2.3c-0.4,0.5-1.1,1-1.9,1.4l-1.8,0.8
		l-2.6-5.5l1.6-0.8c1.2-0.6,1.8-1,1.9-1.2c-0.9-0.5-1.7-0.8-2.3-0.9c-0.1,0-0.2,0-0.3,0l-0.6,0c-0.2,0-0.3-0.2-0.5-0.5
		c-0.4-0.7-0.3-1.6,0.1-2.7c0.5-1.2,1.4-2.1,2.7-2.7c0.9-0.4,1.9-0.6,2.8-0.5c1.1,0.1,1.8,0.6,2.3,1.5c0.3,0.5,0.3,1.2,0.1,2.1
		c0,0.2-0.3,0.9-0.6,1.9c0.3,0,1-0.2,1.9-0.7l1.5-0.7L483.6,438.7z"/>
	<path class="st1" d="M483.1,423.2c0.2,0.1,0.2,0.2,0.1,0.4l-1,2.3c-0.1,0.2-0.2,0.2-0.4,0.1l-2.3-1c-0.2-0.1-0.2-0.2-0.1-0.4
		l0.9-2.2c0.1-0.2,0.2-0.2,0.4-0.2L483.1,423.2z M490.6,436.1l-1,0.4c-1.2,0.5-2.3,0.3-3.4-0.6c-0.2,1.4-1,2.3-2.3,2.8l-1.2,0.5
		l-2.2-5.7l0.8-0.3c0.9-0.3,1.4-0.8,1.6-1.5c0-0.2,0-0.7-0.1-1.7c0-0.6,0.1-1,0.6-1.1c0.4-0.2,0.8,0,1.1,0.5c0.5,0.7,0.8,1.2,1,1.3
		c0.5,0.4,1.2,0.5,2.1,0.1l1-0.4L490.6,436.1z"/>
	<path class="st1" d="M503.5,423.4c0.5,1.9,0.3,3.8-0.5,5.8c-1,2.5-2.9,4.1-5.6,4.8c-0.8,0.2-1.7,0.3-2.6,0.3
		c-1.1,0-1.9-0.2-2.4-0.6c-0.4,1.3-1.1,2.1-2,2.3l-1.1,0.3l-1.6-5.9l1-0.2c0.5-0.1,0.9-0.5,1-1.1c0-0.1,0.1-0.7,0.1-1.6
		c0-0.6,0.2-0.9,0.5-1c0.3-0.1,0.8,0.3,1.3,1.2c0.5,0.9,1,1.3,1.4,1.2c0.1,0,0.4-0.7,1-1.9c0.7-1.5,1.4-2.7,2-3.6
		c1-1.4,2.1-2.2,3.2-2.5c1.1-0.3,2-0.1,2.9,0.5C502.8,421.8,503.3,422.5,503.5,423.4z M500.7,426.2c-0.3-1-1-1.3-2.2-1
		c-1.1,0.3-2.4,1.6-3.7,3.9c0.4-0.1,0.8-0.2,1.2-0.3c1.6-0.4,2.8-0.9,3.7-1.5C500.5,426.8,500.8,426.5,500.7,426.2z"/>
	<path class="st1" d="M531.7,429.8l-0.8,0c-0.3,0-0.6-0.2-1-0.6c-0.5-0.5-1-0.9-1.5-1.1c-0.9-0.4-2.1-0.5-3.5-0.5
		c-0.9,0.1-1.6,0.2-2.1,0.4c-0.3,0.1-0.5,0.3-0.5,0.4c0,0.2,0.5,0.3,1.5,0.3c1.6-0.1,2.7-0.1,3.4,0.1c1.2,0.3,1.9,1.1,1.9,2.3
		c0.2,3.8-2.8,5.9-9,6.2c-3.5,0.2-6-0.6-7.3-2.2c-0.8-0.9-1.2-2.3-1.3-4c-0.1-1.2,0.1-2.5,0.6-3.9c0.5-1.4,1-2.2,1.5-2.2
		c0.7,0,1.1,0.3,1.1,1.1c0,0.3,0,0.7-0.1,1.2c-0.1,0.5-0.1,0.9-0.1,1.2c0.1,2.5,2.4,3.7,6.7,3.5c2.3-0.1,4.1-0.3,5.4-0.7
		c0.5-0.1,0.7-0.3,0.7-0.4c0-0.1-0.3-0.2-0.7-0.2c-0.8,0-1.6,0-2.5,0c-1.3,0.1-2.2,0-2.8-0.1c-0.9-0.2-1.3-0.8-1.4-1.7
		c-0.1-1.8,1.2-3.2,3.7-4.1c1.7-0.6,3.7-0.9,6-1l1.7-0.1L531.7,429.8z"/>
	<path class="st1" d="M545.4,424.2c-0.1,1.6-0.5,3-1.1,4.3c-0.8,1.7-1.9,2.6-3.1,2.4c-1.1-0.1-1.9-0.7-2.5-2
		c-0.6,1.1-1.4,1.6-2.3,1.5c-1.3-0.1-2.1-0.8-2.4-2c-0.6,1.1-1.5,1.7-2.5,1.6l-1-0.1l0.5-6l1,0.1c0.6,0.1,1.1-0.2,1.4-0.6
		c0.2-0.4,0.3-0.9,0.5-1.3c0.3-0.5,0.6-0.8,0.9-0.8c0.4,0,0.7,0.3,0.8,0.8l0.3,1.4c0.2,0.5,0.7,0.8,1.3,0.9c0.5,0,0.9-0.2,1.1-0.7
		c0.1-0.3,0.2-0.7,0.4-1.4c0.2-0.5,0.5-0.7,0.9-0.7c0.4,0,0.7,0.3,0.7,0.9l0.2,1.5c0.2,0.5,0.6,0.9,1.3,0.9c0.8,0.1,1.3-0.2,1.3-0.8
		c0-0.4,0-0.7-0.1-1.1c-0.1-0.2-0.2-0.5-0.3-1l1.9-1.7c0.2-0.2,0.3-0.2,0.4,0.1C545.4,421.7,545.5,423,545.4,424.2z M536.5,416
		c-0.1-0.1-0.1-0.2,0-0.3l1.7-1.4c0.1-0.1,0.2-0.1,0.3,0l1.4,1.6l1.7-1.4c0.1-0.1,0.2-0.1,0.3,0l1.4,1.7c0.1,0.1,0.1,0.3,0,0.4
		l-1.6,1.4c-0.1,0.1-0.3,0.1-0.4,0l-1.4-1.6l0,0l-1.6,1.3c-0.1,0.1-0.3,0.1-0.4,0L536.5,416z M538.5,413.2c-0.1-0.1-0.1-0.2,0-0.3
		l1.7-1.4c0.1-0.1,0.2-0.1,0.3,0l1.5,1.7c0.1,0.1,0.1,0.2-0.1,0.4l-1.6,1.4c-0.1,0.1-0.3,0.1-0.4,0L538.5,413.2z"/>
	<path class="st1" d="M556.1,432.4c-0.7,3.3-2,5.6-4.1,7.1c-0.3,0.2-0.5,0.2-0.9,0.2l-6.1-1.2c-0.7-0.2-1-0.5-0.9-1.1
		c0.1-0.3,0.3-0.5,0.6-0.6c1.3-0.3,2.9-0.9,4.8-1.7c2.5-1.1,3.8-1.9,3.9-2.5c0.1-0.5-0.6-1.9-2.2-4.1l3-3.9c0.2-0.2,0.3-0.2,0.5,0
		c0.9,1.2,1.4,2.3,1.6,3.4C556.5,429,556.4,430.6,556.1,432.4z M556.2,419.7c0.1,0.1,0.1,0.3-0.1,0.3l-2.1,1.4
		c-0.1,0.1-0.3,0.1-0.4-0.1l-1.5-2.1c-0.1-0.2-0.1-0.3,0.1-0.4l2-1.3c0.2-0.1,0.3-0.1,0.4,0.1L556.2,419.7z"/>
	<path class="st1" d="M567.2,435.9c-1,3.2-2.6,5.4-4.8,6.6c-0.3,0.1-0.6,0.2-0.9,0.1l-6-1.9c-0.7-0.2-1-0.6-0.8-1.2
		c0.1-0.3,0.3-0.5,0.7-0.5c1.3-0.2,2.9-0.6,4.9-1.2c2.6-0.8,4-1.5,4.2-2.1c0.2-0.5-0.4-2-1.8-4.3l3.3-3.6c0.2-0.2,0.4-0.2,0.5,0.1
		c0.7,1.3,1.2,2.4,1.3,3.5C567.9,432.6,567.7,434.1,567.2,435.9z"/>
	<path class="st1" d="M578.2,439c-1.7,4.1-3.7,6.6-5.9,7.6c-0.3,0.1-0.6,0.1-0.9,0l-5.8-2.5c-0.7-0.3-0.9-0.7-0.7-1.3
		c0.1-0.3,0.4-0.5,0.7-0.5c1.3,0,2.8-0.2,4.7-0.5c2.5-0.4,3.9-0.8,4.2-1.3c-1.7-0.7-2.7-1.3-3.1-1.7c-0.9-0.9-1-2.1-0.4-3.7
		c0.6-1.4,1.4-2.7,2.4-3.7c1.4-1.4,2.7-1.9,4-1.4c1.4,0.6,2.1,2,1.9,4.1C579.4,435.6,579,437.2,578.2,439z M576.6,435.7
		c0.1-0.3,0-0.6-0.2-1c-0.3-0.4-0.5-0.6-0.8-0.7c-0.8-0.3-1.3-0.2-1.5,0.4c-0.1,0.3,0.3,0.7,1.2,1.1
		C576.1,435.8,576.5,435.9,576.6,435.7z"/>
	<path class="st1" d="M599.5,455.2l-0.7-0.5c-0.2-0.2-0.4-0.5-0.4-1.1c-0.1-0.7-0.3-1.3-0.5-1.8c-0.5-0.8-1.3-1.7-2.6-2.5
		c-0.7-0.5-1.3-0.8-1.9-0.9c-0.3-0.1-0.5-0.1-0.6,0c-0.1,0.2,0.2,0.6,1.1,1.1c1.4,0.9,2.2,1.6,2.6,2.1c0.8,1,0.9,2,0.2,3
		c-2.1,3.2-5.7,3.1-10.9-0.4c-2.9-1.9-4.5-4-4.6-6.1c-0.1-1.2,0.4-2.5,1.4-4c0.7-1,1.6-1.9,2.7-2.8c1.2-0.9,2.1-1.2,2.5-0.9
		c0.6,0.4,0.7,0.9,0.2,1.6c-0.2,0.2-0.4,0.5-0.8,0.9c-0.4,0.4-0.6,0.7-0.8,0.9c-1.4,2.1-0.3,4.4,3.4,6.8c1.9,1.3,3.5,2.2,4.7,2.6
		c0.4,0.2,0.7,0.2,0.8,0.1c0.1-0.1-0.1-0.3-0.4-0.6c-0.6-0.5-1.3-1-2-1.5c-1.1-0.7-1.8-1.3-2.1-1.7c-0.6-0.7-0.6-1.4-0.1-2.2
		c1-1.5,2.8-1.9,5.4-1.1c1.7,0.5,3.5,1.4,5.5,2.7l1.4,0.9L599.5,455.2z"/>
	<path class="st1" d="M608.2,463.5l-0.8-0.7c-0.6-0.6-1.1-1.4-1.4-2.6c-0.3-1-0.4-2-0.3-3c-2.1,0.8-4.1,0.4-6-1.4l-1.5-1.3l4-4.5
		l1.1,0.9c0.9,0.8,1.6,1.3,2.1,1.5c0.2,0.1,0.4,0.1,0.5,0c0.1-0.1,0.1-0.2,0.1-0.5c0-1.2,0-2.7,0-4.7l2.7-2.1c0,0,0.1-0.1,0.2-0.1
		l9.6,4.3c0.1,0,0.2,0.1,0.2,0.1c0,0-0.1,0.1-0.2,0.2l-2.6,2.5c-0.1,0.1-0.2,0.2-0.3,0.2c-0.1,0-0.2,0-0.3,0l-5.3-2.5l-0.1,5.2
		c0.1,1.1,0.6,2,1.4,2.8l1,0.9L608.2,463.5z M620.2,448.2l-0.9,0.8l-9.9-4.4l1.2-0.9L620.2,448.2z"/>
	<path class="st1" d="M613.1,469l-0.7-0.7c-0.9-0.9-1.1-2.1-0.7-3.4c-1.3,0.3-2.5-0.1-3.5-1.1l-0.9-1l4.4-4.1l0.6,0.6
		c0.7,0.7,1.3,1,2,0.9c0.2,0,0.7-0.2,1.5-0.7c0.5-0.3,0.9-0.2,1.3,0.1c0.3,0.3,0.3,0.7-0.1,1.2c-0.5,0.8-0.8,1.2-0.8,1.4
		c-0.2,0.6,0,1.3,0.7,2l0.7,0.7L613.1,469z M622.2,457.2c0,0.2-0.1,0.2-0.3,0.2l-2.5-0.1c-0.2,0-0.3-0.1-0.3-0.3l0-2.5
		c0-0.2,0.1-0.3,0.4-0.3l2.4,0c0.2,0,0.3,0.1,0.3,0.3L622.2,457.2z"/>
	<path class="st1" d="M624.4,475.2c-0.7,0.6-1.7,0.9-2.9,1.2c-1.5,0.3-2.6,0-3.2-0.8c-0.5-0.6-0.8-1.9-0.9-4
		c-1.7-0.3-2.9-0.8-3.6-1.7l-1.5-1.9l4.8-3.8l1,1.2c0.1-0.4,0.4-0.7,0.8-1c0.9-0.7,1.8-0.9,2.6-0.4l-0.1-0.9l4.3-1.1
		c0.5-0.1,0.8-0.1,0.9,0.1c0.1,0.1,0.2,0.4,0.2,0.8c0.4,2.7,0.6,4.9,0.4,6.6C626.9,472.1,626,473.9,624.4,475.2z M622.1,468.8
		c0.2-0.2,0.4-0.5,0.4-0.9c0-0.4-0.1-0.7-0.3-1c-0.2-0.3-0.5-0.5-0.9-0.6c-0.4-0.2-0.8-0.2-1,0c-0.2,0.2-0.3,0.5-0.2,1
		c0.1,0.5,0.2,0.8,0.3,1.1c0.2,0.2,0.4,0.4,0.8,0.5C621.6,469,621.9,468.9,622.1,468.8z M622.4,473.5c0.5-0.4,0.7-1.3,0.6-2.9
		c-0.1,0.1-0.1,0.1-0.2,0.2c-0.7,0.5-1.4,0.7-2,0.4c0,0.3,0,0.7,0.1,1.2c0.1,0.6,0.2,1,0.4,1.1C621.6,473.9,621.9,473.9,622.4,473.5
		z"/>
	<path class="st1" d="M627.3,489.2l-0.4-0.6c-0.2-0.3-0.3-0.6-0.2-1l-1,0.6c-0.8,0.5-1.9,0.9-3.2,1.1c-1.1,0.2-2.1,0.2-2.9,0
		c-0.3-0.1-0.5-0.2-0.7-0.5l-3.3-5.3c-0.4-0.6-0.3-1.1,0.2-1.4c0.3-0.2,0.6-0.2,0.9,0c1.1,0.7,2.6,1.5,4.5,2.3
		c2.5,1.1,4,1.4,4.6,1.1c0.5-0.3,0.9-1.8,1.5-4.5l4.9-0.5c0.3,0,0.4,0.1,0.3,0.4c-0.3,1.2-0.5,2-0.5,2.4c-0.1,0.9,0,1.7,0.4,2.3
		l0.3,0.4L627.3,489.2z"/>
	<path class="st1" d="M637.9,492.9c-4.7,2.4-8.1,1.3-10.4-3.3l-0.8-1.5l5.4-2.7l0.8,1.5c1.3,2.6,2.2,4.1,2.7,4.3
		c0.2,0.1,0.4,0.1,0.6,0c0.2-0.1,0.3-0.3,0.2-0.5c0-0.1-0.1-0.1-0.2-0.2c-0.3-0.2-0.6-0.8-1.1-1.8c-1-2-0.7-3.5,0.9-4.3
		c1.1-0.6,2.3-0.8,3.7-0.8c1.6,0,2.7,0.5,3.2,1.5c0.7,1.5,0.4,3-1,4.7C640.7,491.1,639.4,492.2,637.9,492.9z M639.1,488.8
		c0.2-0.1,0.4-0.4,0.4-0.9c0-0.4,0-0.8-0.2-1.1c-0.1-0.3-0.3-0.5-0.6-0.6c-0.3-0.2-0.5-0.2-0.8-0.1c-0.3,0.1-0.2,0.7,0.2,1.5
		C638.7,488.5,639,488.9,639.1,488.8z M647,485.2c0,0.2-0.2,0.2-0.3,0.2l-2.4-0.8c-0.2,0-0.2-0.2-0.2-0.3l0.8-2.4
		c0.1-0.2,0.2-0.3,0.4-0.2l2.3,0.7c0.2,0.1,0.3,0.2,0.2,0.4L647,485.2z"/>
	<path class="st1" d="M637,513.1l-0.4-1.3c-0.6-1.9,0-3.4,1.8-4.6c-1-0.1-1.5-0.3-1.7-0.7c-0.3-0.8-0.4-1.7-0.3-2.9
		c0.1-1.6,0.6-2.5,1.4-2.8c1-0.3,2-0.3,3.3,0c0.1,0,1.4,0.7,3.8,2.2l1-0.6l4,1.9c0.2,0.1,0.3,0.2,0.3,0.2c0,0.1-0.1,0.2-0.3,0.3
		l-6.1,3.4c-1.1,0.6-1.5,1.3-1.3,2l0.3,0.8L637,513.1z M640.8,505.8l2.3-1.6c-1.3-0.9-2.1-1.2-2.4-1.1
		C640.3,503.2,640.3,504.1,640.8,505.8z"/>
	<path class="st1" d="M640.2,528l-0.2-1c-0.2-0.9,0.2-1.8,1.2-2.8c-1.3-0.6-2-1.2-2.2-1.9c-0.1-0.5,0-0.9,0.3-1.5
		c0.2-0.5,0.6-0.9,1-1.2c-1.3-0.5-2.1-1.1-2.2-1.8c-0.2-1,0.2-1.9,1.2-2.7c-1.3-0.5-2.1-1.3-2.3-2.2l-0.2-1l5.9-1.3l0.2,1
		c0.1,0.7,0.5,1.1,1.1,1.2c0.5,0,1,0.1,1.5,0.1c0.6,0.1,1,0.3,1.1,0.7c0.1,0.4-0.1,0.8-0.6,1c-0.2,0.1-0.7,0.3-1.4,0.7
		c-0.5,0.3-0.7,0.8-0.5,1.4c0.1,0.5,0.4,0.8,1,0.9c0.3,0,0.8,0,1.5,0.1c0.5,0,0.9,0.3,1,0.7c0.1,0.4-0.1,0.8-0.6,1
		c-0.3,0.1-0.7,0.3-1.4,0.6c-0.5,0.3-0.7,0.7-0.6,1.2c0.1,0.5,0.4,0.8,1,0.9c0.5,0,1,0,1.5,0c0.5,0,0.8,0.3,0.9,0.7
		c0.1,0.4-0.1,0.7-0.6,1c-0.2,0.1-0.6,0.3-1.3,0.7c-0.5,0.3-0.6,0.8-0.5,1.3l0.2,1L640.2,528z"/>
	<path class="st1" d="M648.2,540.2c-1.6,0.1-3,0-4.4-0.3c-1.9-0.5-2.9-1.4-3-2.6c-0.1-1.1,0.4-2,1.5-2.8c-1.2-0.4-1.8-1.1-1.9-2
		c-0.1-1.3,0.4-2.2,1.6-2.7c-1.2-0.4-1.9-1.2-2-2.2l-0.1-1l6-0.5l0.1,1c0.1,0.6,0.3,1,0.9,1.2c0.5,0.1,0.9,0.2,1.3,0.3
		c0.6,0.2,0.9,0.4,0.9,0.8c0,0.4-0.2,0.7-0.7,0.9l-1.4,0.5c-0.5,0.3-0.7,0.8-0.6,1.5c0,0.5,0.3,0.8,0.8,1c0.3,0,0.7,0.1,1.4,0.2
		c0.5,0.1,0.8,0.4,0.8,0.8c0,0.4-0.2,0.7-0.7,0.9l-1.4,0.5c-0.5,0.3-0.7,0.8-0.7,1.5c0.1,0.8,0.4,1.2,1,1.1c0.4,0,0.7-0.1,1.1-0.3
		c0.2-0.1,0.5-0.3,0.9-0.5l2,1.5c0.2,0.2,0.2,0.3,0,0.4C650.6,539.8,649.4,540.1,648.2,540.2z"/>
	<path class="st1" d="M640.8,553.3l0-1.4c-3-0.3-5.2-1.1-6.6-2.5c-0.2-0.2-0.3-0.5-0.3-0.8l0.2-6.3c0-0.7,0.3-1.1,0.9-1.1
		c0.3,0,0.6,0.2,0.7,0.5c0.5,1.2,1.3,2.6,2.2,4.2c1.3,2.2,2.2,3.3,2.8,3.4c0-1.8,0.2-3,0.4-3.5c0.5-1.2,1.6-1.7,3.3-1.7
		c1.6,0,3,0.3,4.4,0.9c1.9,0.8,2.8,1.8,2.7,3.2c0,1.9-1.6,3.2-4.7,3.7l0,1.6L640.8,553.3z M645.9,549.2c0.3,0,0.6-0.2,0.8-0.6
		c0.2-0.4,0.4-0.7,0.4-1c0-0.8-0.3-1.2-0.9-1.3c-0.3,0-0.5,0.5-0.5,1.5C645.6,548.8,645.7,549.2,645.9,549.2z"/>
	<path class="st1" d="M643.7,563.3c-1.2-0.1-2.1-0.6-2.8-1.5c-0.8-0.9-1.1-1.9-0.9-3c0.2-1.5,1-2.5,2.5-3.3
		c-1.3-0.8-1.8-1.7-1.7-2.7l0.1-0.8l6,0.7l-0.1,0.4c-0.1,1.1,0.1,1.7,0.8,1.9c0.9,0.2,1.7,0.5,2.4,1.1c1,0.8,1.4,2,1.2,3.3
		c-0.2,1.7-1.2,2.8-3.1,3.5C646.7,563.4,645.3,563.5,643.7,563.3z M645,561.4c0.6,0.1,1.2,0,1.9-0.2c0.8-0.3,1.3-0.7,1.3-1.2
		c0-0.3,0-0.5-0.2-0.7c-0.2-0.2-0.4-0.3-0.7-0.4c-0.7-0.1-1.3,0-2,0.2c-0.9,0.3-1.3,0.7-1.4,1.4C643.9,561,644.2,561.3,645,561.4z"
		/>
</g>
<g>
	<text transform="matrix(1 0 0 1 481.1602 666.6836)" class="st1 st6 st7">SNAC</text>
</g>
</svg>
