<svg xmlns="http://www.w3.org/2000/svg" viewBox="0 0 56.35 51.66"><defs><style>.cls-1{fill:#007a45;}</style></defs><g id="Layer_2" data-name="Layer 2"><g id="bg_top" data-name="bg top"><path class="cls-1" d="M51.66,16.44H51L42.94,2.35A4.63,4.63,0,0,0,40.1.16,4.87,4.87,0,0,0,38.74,0a4.73,4.73,0,0,0-2.18.63L2.33,20.56A4.72,4.72,0,0,0,.62,27L7,38.18V47a4.71,4.71,0,0,0,4.7,4.7H51.66A4.7,4.7,0,0,0,56.35,47V21.13A4.69,4.69,0,0,0,51.66,16.44ZM7,33.46l-.89-1.57L7,31.37Zm0-4.81L5,29.85l-1.16-2L7,26Zm0-7.52v2.1L2.66,25.79a2.36,2.36,0,0,1,.85-3.2l3.6-2.09A4.5,4.5,0,0,0,7,21.13ZM48.3,16.44H32.69L44.4,9.62ZM43.23,7.58,28,16.44H23.39L42.07,5.56ZM37.75,2.66a2.3,2.3,0,0,1,3.15.86h0L18.72,16.44H14.08ZM54,47a2.35,2.35,0,0,1-2.34,2.35H11.74A2.36,2.36,0,0,1,9.39,47V21.13a2.36,2.36,0,0,1,2.35-2.35H51.66A2.35,2.35,0,0,1,54,21.13Z"/><path class="cls-1" d="M44.47,35.22a5,5,0,0,0-2.21.52,4.91,4.91,0,0,0-2.2-.52,4.7,4.7,0,1,0,0,9.39,4.91,4.91,0,0,0,2.2-.52,5,5,0,0,0,2.21.52,4.7,4.7,0,1,0,0-9.39Zm0,7A2.6,2.6,0,0,1,43,41.77a1.14,1.14,0,0,0-.69-.23,1.19,1.19,0,0,0-.69.23,2.57,2.57,0,0,1-1.51.49,2.35,2.35,0,1,1,0-4.69,2.51,2.51,0,0,1,1.51.5,1.2,1.2,0,0,0,1.38,0,2.54,2.54,0,0,1,1.52-.5,2.35,2.35,0,1,1,0,4.69Z"/><path class="cls-1" d="M15.26,37.57H27a1.18,1.18,0,1,0,0-2.35H15.26a1.18,1.18,0,0,0,0,2.35Z"/><path class="cls-1" d="M31.7,42.26H15.26a1.18,1.18,0,0,0,0,2.35H31.7a1.18,1.18,0,0,0,0-2.35Z"/></g></g></svg>