<svg xmlns="http://www.w3.org/2000/svg" viewBox="0 0 93.91 97.11"><defs><style>.cls-1{fill:#ffda1a;}.cls-2{fill:#ea0303;}.cls-3{fill:#154692;}</style></defs><g id="Layer_2" data-name="Layer 2"><g id="Layer_7" data-name="Layer 7"><path class="cls-1" d="M46.8.18C43,4.56,32,19.17,6.44,11.46L0,26.37s18.08,6.84,8.7,31.3C-3.79,86.26,22,87.39,22,87.39s16.82.67,24.88,9.61v.11l.05-.06,0,.06V97c8.06-8.94,24.87-9.61,24.87-9.61S97.7,86.26,85.21,57.67c-9.37-24.46,8.7-31.3,8.7-31.3L87.47,11.46C61.89,19.17,50.92,4.56,47.12.18L47,0Z"/><path class="cls-2" d="M48.17,31.34s-.52,2.22,2.65,6.06c5.11,4.87.75,8.25.75,8.25H42.11s-3.34-2.54.29-7.73c0,0,.71,3,1.1,2.94S43,37.31,45.44,34.2c0,0-.3,3.13,1,4C46.22,35.07,46.91,32.91,48.17,31.34Z"/><path class="cls-3" d="M52.13,48.27H41.87a1.08,1.08,0,0,1,0-2.15H52.13a1.08,1.08,0,1,1,0,2.15Z"/><path class="cls-3" d="M50.36,51.68a5,5,0,0,0-.59.41A8.52,8.52,0,0,0,47,56.9a2.92,2.92,0,0,0-.22-.88c-.06-.23-.12-.45-.2-.68A7,7,0,0,0,46,54.1,8.94,8.94,0,0,0,44.31,52a10.76,10.76,0,0,0-1.18-.67,1.07,1.07,0,0,1,.61-2h6.55a1.08,1.08,0,0,1,1.08,1.07C51.37,51,50.85,51.37,50.36,51.68Z"/><path class="cls-3" d="M70.62,62.63c-.19-1.5-.73-3.25-2.28-3.82a3.75,3.75,0,0,0-3.69.87c-1,.87-1.75,2.27-.78,3.45.58.71,2.08,1.69,3,1.24-5.09,2.4-5.84-4.12-2.46-6.45a10.89,10.89,0,0,0-.14-1.13,8,8,0,0,0-6.81-6.28,8.69,8.69,0,0,0-8.41,3.65,11.37,11.37,0,0,0-2,5.37s-.06.4-.06.4S47,59.6,47,59.56a11.35,11.35,0,0,0-2-5.4,8.68,8.68,0,0,0-8.41-3.65,8,8,0,0,0-6.8,6.28,8.72,8.72,0,0,0-.14,1.13c3.37,2.33,2.62,8.85-2.46,6.45.95.45,2.45-.53,3-1.24,1-1.18.21-2.58-.78-3.45a3.75,3.75,0,0,0-3.69-.87c-1.55.57-2.09,2.32-2.27,3.82-.26,2.1.11,4.09,2.1,5.21a5.9,5.9,0,0,0,5.35-.08,5.07,5.07,0,0,0,1.84-1.6,5.5,5.5,0,0,0,.69-1.2c.1-.27.47-1.22.27-1.48A5.12,5.12,0,0,0,39,65.58a1.8,1.8,0,0,1,1.12,2.27c-.44,1.77,1.75-2.14-.16-3.5,0,0,1.39-5.45-2.65-4.62,0,0,1,2.39-1.58,2.46-1.94.06-2.48-2.38-2.56-3.89a4,4,0,0,1,1.45-3.22,5.49,5.49,0,0,1,3-1.16C41.78,53.46,43.45,58.6,43,60c-.08.27-.25.54-.35.8A10.46,10.46,0,0,0,42.32,62a7,7,0,0,0-.17,2.87,4.1,4.1,0,0,0,1.63,2.62,5.55,5.55,0,0,0,3.38,1A5.2,5.2,0,0,0,49.41,68a5.4,5.4,0,0,0,1.43-1,4.39,4.39,0,0,0,1.1-3,8.47,8.47,0,0,0-.49-2.86A11,11,0,0,0,51,60c-.42-1.44,1.25-6.58,5.46-6.12a5.49,5.49,0,0,1,3,1.16,4,4,0,0,1,1.45,3.22c-.08,1.51-.61,4-2.56,3.89-2.6-.07-1.58-2.46-1.58-2.46-4-.83-2.65,4.62-2.65,4.62-1.9,1.36.29,5.27-.15,3.5A1.79,1.79,0,0,1,55,65.58a5.14,5.14,0,0,0,5.35-2.1c-.21.26.16,1.21.27,1.48a5.46,5.46,0,0,0,.68,1.2,5.15,5.15,0,0,0,1.84,1.6,5.92,5.92,0,0,0,5.36.08C70.5,66.72,70.87,64.73,70.62,62.63ZM47.69,65.81a2.33,2.33,0,0,1-3-2.12,2.19,2.19,0,0,1,2.19-2.19h.33a2.18,2.18,0,0,1,.52,4.31Z"/><path d="M18.3,52s0,0,0,0a0,0,0,0,1,.05,0l.43.39a0,0,0,0,1,0,.08l-.38.44s-.07,0-.11,0l-.41-.37s0-.06,0-.1Zm1.86-1.69a1.89,1.89,0,0,1,1.65.54,2.17,2.17,0,0,1,.4,1.29A2,2,0,0,1,22,53.37a1.17,1.17,0,0,1-1,.58,3.26,3.26,0,0,1-.87-.07c-.38-.09-.57-.21-.58-.37s.1-.2.32-.21a.79.79,0,0,1,.25,0,1.43,1.43,0,0,0,.26,0c.42,0,.6-.43.56-1.23s-.21-1.23-.51-1.21c-.07,0-.21.1-.41.29a1.79,1.79,0,0,0-.38.42l-1-.45c-.07,0-.1-.06-.1-.07s0-.06.08-.12a1.82,1.82,0,0,1,.59-.38A3,3,0,0,1,20.16,50.33Z"/><path d="M19.12,48.72a3.62,3.62,0,0,1,.68.12,2.73,2.73,0,0,1,.64.22c.18.1.26.18.26.26s-.12.14-.34.19-1.38.19-3.2.37l-1-1c-.06-.06-.09-.1-.08-.12l.08,0a8,8,0,0,1,1.46-.09Z"/><path d="M19.59,45.78c1,.13,1.41.66,1.29,1.58s-.5,1.13-1.18,1a2,2,0,0,1-.73-.26c-.09-.06-.13-.12-.12-.19s.08-.12.2-.14a.54.54,0,0,0,.38-.16A1.63,1.63,0,0,0,19.6,47c0-.4,0-.6-.07-.62a.3.3,0,0,0-.16.07,4.47,4.47,0,0,0-.92,1l-.95-.61c-.05,0-.08-.07-.08-.09l0-.08a2.47,2.47,0,0,1,.64-.59A2.14,2.14,0,0,1,19.59,45.78Z"/><path d="M21.52,44.16l-.08.32a1,1,0,0,1-1.42.85q-.49-.12-1.32-.27c-.57-.1-.95-.16-1.15-.18a.18.18,0,0,1-.18-.09l-.41-1a.34.34,0,0,1,0-.13s0,0,.08,0l2.63.6c.28.06.46,0,.52-.29l0-.09Z"/><path d="M20.36,42.49a2.22,2.22,0,0,1,1.08.57,1.21,1.21,0,0,1,.09,1.11l-.06.23L20.13,44l.2-.66c0-.12,0-.18,0-.2a.2.2,0,0,0-.13,0,3.84,3.84,0,0,0-.63.33s-.07,0-.11,0l-.63-.77a.21.21,0,0,1-.05-.09l.09-.05A2.22,2.22,0,0,1,20.36,42.49Zm2.32.92s.06,0,.09,0L23,44A.05.05,0,0,1,23,44l-.51.29s-.07,0-.1,0l-.26-.48a.07.07,0,0,1,0-.1Z"/><path d="M18.34,38.36c.15.06.25.27.3.64a2.15,2.15,0,0,1-.12,1.08,2.46,2.46,0,0,1-.22.38,2.47,2.47,0,0,0-.22.37c0,.05,0,.12.08.22s.1.16.09.2-.13.1-.26,0a1.13,1.13,0,0,1-.39-.37c-.18-.22-.25-.39-.21-.49,0,.06,0,.09,0,.09s.11-.12.27-.37a6.33,6.33,0,0,0,.43-.75,1.46,1.46,0,0,0,.08-.54,1.79,1.79,0,0,1,.05-.44A.09.09,0,0,1,18.34,38.36Zm.53,1.21,1.23.49q1,.4,1.17.51a3.09,3.09,0,0,1,.5.36,4.32,4.32,0,0,1,.43.43c.13.16.18.27.16.34s-.16.09-.38.06a23.68,23.68,0,0,1-3.14-1l-.12-1.07a.35.35,0,0,1,0-.12S18.79,39.53,18.87,39.57Z"/><path d="M22.41,35s.06,0,.06,0l.12.5s0,.05-.05.06l-.46.12.1.46s0,.05,0,.06l-.49.12a.06.06,0,0,1-.08,0l-.11-.46a.06.06,0,0,1,.05-.08l.46-.12-.1-.45s0-.07.05-.08ZM26,35l-.11.17a.82.82,0,0,1-.85.36,3.07,3.07,0,0,1-.57,2.23,1.82,1.82,0,0,1-.91.84,1.37,1.37,0,0,1-1.19-.24,2.67,2.67,0,0,1-.49-.41c-.19-.2-.25-.35-.19-.45s.19-.12.37,0a.84.84,0,0,0,.56.15c.28-.06.56-.33.87-.82a3.76,3.76,0,0,0,.58-1.39,1.76,1.76,0,0,0,0-.79.81.81,0,0,1-.06-.37c.06-.09.15-.1.26,0a1.17,1.17,0,0,1,.16.16,1.08,1.08,0,0,1,.13.19.28.28,0,0,0,.19-.16l.1-.16Z"/><path d="M23.87,31.5a0,0,0,0,1,.06.05l.05.58s0,.06-.05.07l-.58.06c-.05,0-.07,0-.08-.07l-.05-.54a.07.07,0,0,1,.06-.09Zm3.44,2-.16.19a1,1,0,0,1-.45.29,1.34,1.34,0,0,1-.41.08,1.54,1.54,0,0,1-.29,1l-.14.16-1.07-.88.28-.33a.69.69,0,0,1-.38-.19,1.39,1.39,0,0,1-.43-.73.89.89,0,0,1,.12-.88.59.59,0,0,1,.61-.21,1.13,1.13,0,0,1,.54.26A1.21,1.21,0,0,1,26,33l.25-.3Zm-1.86-.64c-.05,0-.13,0-.23,0A.5.5,0,0,0,25,33a.7.7,0,0,0-.11.23.22.22,0,0,0,.05.24s.12,0,.23,0a.48.48,0,0,0,.23-.12.44.44,0,0,0,.09-.25C25.53,33,25.51,33,25.45,32.91Z"/><path d="M25,30.06s.07,0,.07.06v.58a.07.07,0,0,1-.06.07l-.58,0c-.05,0-.07,0-.07-.08l0-.54c0-.05,0-.08.07-.08ZM27,31.52a2.23,2.23,0,0,1,.71,1,1.17,1.17,0,0,1-.42,1l-.16.17-1-.95.47-.5c.09-.09.1-.15.05-.2a.17.17,0,0,0-.12,0,4.19,4.19,0,0,0-.71,0s-.06,0-.08-.07l-.21-1c0-.06,0-.09,0-.1s0,0,.1,0A2.17,2.17,0,0,1,27,31.52Z"/><path d="M33,28.7l-.16.12a.84.84,0,0,1-.93,0,3,3,0,0,1-1.31,1.89,1.86,1.86,0,0,1-1.15.47,1.38,1.38,0,0,1-1-.65,2.32,2.32,0,0,1-.31-.56c-.11-.25-.11-.41,0-.48s.22,0,.35.11a.83.83,0,0,0,.48.33A1.58,1.58,0,0,0,30,29.52a3.89,3.89,0,0,0,1-1.1,1.66,1.66,0,0,0,.24-.75,1,1,0,0,1,.08-.37c.09-.06.17,0,.25.06a1,1,0,0,1,.1.21.91.91,0,0,1,0,.22.29.29,0,0,0,.23-.08l.16-.12Zm-3.36-1.25s.05,0,0,.06l-.07.5s0,.06-.06,0l-.47,0-.07.46s0,.06-.06.05l-.51-.06s-.05,0-.05-.08l.06-.47a.07.07,0,0,1,.08-.06l.47,0,.05-.45c0-.05,0-.06.08-.06Z"/><path d="M35.08,27.63l-.24.14c-.49.28-.87.31-1.15.09a.94.94,0,0,1-.14.52,1.17,1.17,0,0,1-.42.35l-.39.22-.68-1.21.36-.2c.25-.14.39-.25.41-.31a1.64,1.64,0,0,0-.54-.16h-.21S32,27,32,27a.68.68,0,0,1,0-.61,1.24,1.24,0,0,1,.57-.65,1.15,1.15,0,0,1,.64-.16.61.61,0,0,1,.54.31.75.75,0,0,1,0,.49s0,.2-.11.44a1.19,1.19,0,0,0,.43-.18l.32-.18Z"/><path d="M34.69,24.14s0,0,0,.08l-.2.54s0,0-.08,0l-.55-.2s0,0,0-.1L34,24s0-.06.09,0ZM36.6,27l-.21.1A.76.76,0,0,1,35.6,27a.77.77,0,0,1-.49.67l-.27.13-.58-1.26.17-.08a.5.5,0,0,0,.33-.37,1.65,1.65,0,0,0,0-.38c0-.13,0-.22.1-.26s.18,0,.26.09a1.54,1.54,0,0,0,.24.29.48.48,0,0,0,.48,0l.21-.1Z"/><path d="M39.36,23.86a2,2,0,0,1,0,1.33,1.82,1.82,0,0,1-1.21,1.19,1.87,1.87,0,0,1-.59.11,1,1,0,0,1-.57-.11.68.68,0,0,1-.42.56L36.3,27l-.45-1.31.21-.08a.31.31,0,0,0,.22-.26V25c0-.13,0-.21.09-.23s.18.06.32.26.25.27.34.24a3,3,0,0,0,.19-.45,4.34,4.34,0,0,1,.41-.86,1.42,1.42,0,0,1,.7-.63.75.75,0,0,1,.67.07A.89.89,0,0,1,39.36,23.86Zm-.6.68c-.08-.22-.25-.28-.51-.19a1.72,1.72,0,0,0-.79.94l.26-.08a3.31,3.31,0,0,0,.82-.39C38.7,24.7,38.78,24.61,38.76,24.54Z"/><path d="M45.88,24.9l-.18,0a.31.31,0,0,1-.24-.12,1.26,1.26,0,0,0-.36-.24,1.88,1.88,0,0,0-.81,0,1.34,1.34,0,0,0-.47.12c-.08,0-.11.06-.11.09s.12.06.35,0a3,3,0,0,1,.77,0,.52.52,0,0,1,.48.49c.09.87-.56,1.38-2,1.54a2,2,0,0,1-1.7-.39,1.59,1.59,0,0,1-.36-.91,2.47,2.47,0,0,1,.08-.88c.08-.34.19-.51.31-.53s.25.07.27.25a1.94,1.94,0,0,1,0,.27,1.26,1.26,0,0,0,0,.28c.06.58.59.81,1.59.7a5.77,5.77,0,0,0,1.21-.23c.1,0,.15-.06.15-.1s-.06,0-.17,0-.37,0-.57,0a2.23,2.23,0,0,1-.63,0,.39.39,0,0,1-.34-.36c0-.41.22-.74.8-1a5.13,5.13,0,0,1,1.36-.32l.38,0Z"/><path d="M48.88,23.39a2.86,2.86,0,0,1-.19,1c-.15.41-.38.62-.67.61a.7.7,0,0,1-.6-.41.56.56,0,0,1-.5.39.6.6,0,0,1-.59-.43.58.58,0,0,1-.55.4h-.24l0-1.37h.24a.3.3,0,0,0,.3-.16l.09-.3c.06-.13.13-.19.21-.19s.15.06.18.18l.08.32a.32.32,0,0,0,.32.18.23.23,0,0,0,.24-.17c0-.06,0-.16.08-.32a.2.2,0,0,1,.21-.17c.09,0,.15.07.18.19l.07.34a.31.31,0,0,0,.31.18c.19,0,.29-.06.29-.19a.78.78,0,0,0,0-.26L48.24,23l.4-.42s.07,0,.09,0A2.16,2.16,0,0,1,48.88,23.39Zm-2.15-1.71s0,0,0-.07l.37-.35a0,0,0,0,1,.07,0l.35.36.36-.34a0,0,0,0,1,.07,0l.35.36a.06.06,0,0,1,0,.09l-.35.33s-.05,0-.08,0l-.35-.35h0l-.33.33a.07.07,0,0,1-.09,0Zm.41-.68s0-.05,0-.08l.37-.35s.05,0,.07,0l.36.37s0,0,0,.09l-.34.33a.06.06,0,0,1-.09,0Z"/><path d="M51.47,25.12a2.51,2.51,0,0,1-.83,1.68.25.25,0,0,1-.19.05L49,26.66c-.17,0-.25-.1-.23-.24a.17.17,0,0,1,.13-.15A8.75,8.75,0,0,0,50,25.81c.55-.28.84-.5.86-.64s-.18-.43-.58-.91l.62-.94q.06-.08.12,0a2.08,2.08,0,0,1,.42.74A2.79,2.79,0,0,1,51.47,25.12Zm-.18-2.9s0,.05,0,.08l-.46.36a0,0,0,0,1-.08,0l-.37-.45s0-.07,0-.11l.43-.33s.07,0,.1,0Z"/><path d="M54,25.73a2.53,2.53,0,0,1-1,1.59.24.24,0,0,1-.2,0L51.45,27c-.16,0-.22-.13-.19-.26a.16.16,0,0,1,.14-.14,7.85,7.85,0,0,0,1.11-.35c.57-.22.88-.4.92-.55s-.13-.44-.48-1l.71-.87c0-.05.08-.05.11,0a1.91,1.91,0,0,1,.35.78A2.66,2.66,0,0,1,54,25.73Z"/><path d="M56.6,26.25a3.11,3.11,0,0,1-1.23,1.83.27.27,0,0,1-.2,0l-1.35-.47c-.16-.06-.22-.15-.18-.28a.19.19,0,0,1,.16-.12,8.72,8.72,0,0,0,1.07-.2c.58-.13.89-.25.94-.37a2.52,2.52,0,0,1-.74-.33.71.71,0,0,1-.14-.84,2.9,2.9,0,0,1,.49-.88c.3-.36.6-.48.89-.38s.51.42.5.91A3.48,3.48,0,0,1,56.6,26.25Zm-.43-.71a.23.23,0,0,0-.07-.22.66.66,0,0,0-.2-.16c-.18-.06-.3,0-.34.11s.07.15.29.22S56.16,25.58,56.17,25.54Z"/><path d="M61.72,29.63l-.16-.09q-.09,0-.12-.24a1.11,1.11,0,0,0-.15-.4,1.8,1.8,0,0,0-.63-.52,1.31,1.31,0,0,0-.45-.18c-.08,0-.12,0-.14,0s.07.12.27.23a3.11,3.11,0,0,1,.63.44.51.51,0,0,1,.1.67c-.44.77-1.27.79-2.5.09a2,2,0,0,1-1.15-1.32,1.56,1.56,0,0,1,.25-.93,2.45,2.45,0,0,1,.58-.68c.27-.22.45-.3.56-.24a.23.23,0,0,1,.08.36,2,2,0,0,1-.16.23c-.08.09-.13.17-.17.22-.28.51,0,1,.88,1.5a6.22,6.22,0,0,0,1.12.53c.1,0,.16,0,.18,0s0-.08-.11-.14l-.49-.3a2.7,2.7,0,0,1-.52-.36.41.41,0,0,1-.06-.49q.31-.54,1.23-.33a4.82,4.82,0,0,1,1.29.54l.33.19Z"/><path d="M63.83,31.4l-.18-.14a1.16,1.16,0,0,1-.37-.57,2.78,2.78,0,0,1-.12-.69,1.24,1.24,0,0,1-1.4-.21l-.36-.28.85-1.1.26.2a1.93,1.93,0,0,0,.5.32c.06,0,.09,0,.11,0s0-.06,0-.11c0-.27,0-.63-.07-1.06l.58-.52a.06.06,0,0,1,.05,0L66,28l0,0s0,0,0,.06l-.56.62s0,.05,0,.05a.06.06,0,0,1-.07,0L64,28.31l0,1.18a1,1,0,0,0,.37.62l.26.2Zm2.51-3.69-.2.2-2.32-.84.25-.22Z"/><path d="M65,32.55l-.18-.16a.75.75,0,0,1-.22-.76.79.79,0,0,1-.81-.19l-.22-.2.94-1,.15.13a.48.48,0,0,0,.46.16,1.2,1.2,0,0,0,.34-.18.21.21,0,0,1,.28,0c.08.07.08.16,0,.28a1.68,1.68,0,0,0-.17.33.47.47,0,0,0,.19.44l.17.16Zm1.88-2.84s0,.05-.06.05l-.58,0s-.07,0-.07-.06l0-.58s0-.07.08-.07l.55,0a.06.06,0,0,1,.07.07Z"/><path d="M67.71,33.78a1.53,1.53,0,0,1-.64.31.72.72,0,0,1-.75-.13,1.93,1.93,0,0,1-.27-.9,1.21,1.21,0,0,1-.84-.32l-.37-.41,1-.94.25.27a.48.48,0,0,1,.15-.24.53.53,0,0,1,.6-.14l0-.21,1-.32c.11,0,.18,0,.22,0a.51.51,0,0,1,.06.19,5.87,5.87,0,0,1,.19,1.51A1.79,1.79,0,0,1,67.71,33.78Zm-.64-1.43a.28.28,0,0,0,.07-.21.4.4,0,0,0-.08-.21.5.5,0,0,0-.21-.13c-.1,0-.18,0-.23,0s-.05.12,0,.24a.46.46,0,0,0,.09.23.38.38,0,0,0,.2.1A.24.24,0,0,0,67.07,32.35Zm.15,1.07q.15-.14.09-.66l0,0a.44.44,0,0,1-.44.13,1.28,1.28,0,0,0,.05.28.5.5,0,0,0,.1.25C67,33.54,67.12,33.52,67.22,33.42Z"/><path d="M68.6,36.93l-.1-.13a.38.38,0,0,1-.08-.23l-.21.16a1.84,1.84,0,0,1-.72.29,1.78,1.78,0,0,1-.67,0,.22.22,0,0,1-.17-.1l-.84-1.16c-.1-.14-.1-.25,0-.33a.18.18,0,0,1,.2,0,8,8,0,0,0,1.07.45c.59.21.94.27,1.06.18s.18-.42.26-1l1.1-.2c.07,0,.1,0,.09.08a4.17,4.17,0,0,0-.08.56.89.89,0,0,0,.13.53l.07.08Z"/><path d="M71.06,37.62A1.57,1.57,0,0,1,68.62,37l-.2-.34L69.61,36l.2.33a2.93,2.93,0,0,0,.69.94.15.15,0,0,0,.13,0,.08.08,0,0,0,0-.12l0,0a1.24,1.24,0,0,1-.29-.39c-.27-.45-.22-.78.14-1a2,2,0,0,1,.83-.25.76.76,0,0,1,.75.29,1,1,0,0,1-.15,1.1A3,3,0,0,1,71.06,37.62Zm.22-1a.27.27,0,0,0,.08-.22.43.43,0,0,0,0-.24.35.35,0,0,0-.14-.13.15.15,0,0,0-.18,0c-.07,0,0,.15.07.34S71.24,36.68,71.28,36.66ZM73,35.71s0,0-.08,0l-.56-.14s0,0,0-.08l.13-.57s0-.06.1,0l.52.12a.08.08,0,0,1,.06.1Z"/><path d="M71.18,42.21l-.12-.28a.84.84,0,0,1,.33-1.08c-.22,0-.36-.05-.4-.14a1.82,1.82,0,0,1-.11-.66c0-.36.09-.57.28-.66a1.3,1.3,0,0,1,.74,0l.91.43.22-.15L74,40s0,0,.06,0,0,.05,0,.08L72.64,41c-.24.16-.33.32-.26.48l.08.18Zm.75-1.73.5-.4c-.3-.18-.5-.25-.58-.21S71.79,40.11,71.93,40.48Z"/><path d="M72.15,45.52l-.07-.22a.76.76,0,0,1,.23-.67c-.31-.11-.49-.25-.53-.4a.52.52,0,0,1,0-.34.83.83,0,0,1,.21-.28c-.31-.1-.49-.23-.53-.38a.58.58,0,0,1,.24-.63c-.32-.1-.51-.25-.57-.46l-.06-.23,1.32-.38.07.22a.33.33,0,0,0,.26.26h.34c.14,0,.23.06.25.15a.19.19,0,0,1-.12.24l-.3.18a.27.27,0,0,0-.1.32.24.24,0,0,0,.24.19h.35a.2.2,0,0,1,.23.14c0,.09,0,.17-.12.23l-.3.17a.24.24,0,0,0-.11.28.23.23,0,0,0,.24.18l.34,0a.21.21,0,0,1,.23.15.21.21,0,0,1-.12.23l-.3.18a.26.26,0,0,0-.09.31l.06.22Z"/><path d="M74.17,48.18a2.8,2.8,0,0,1-1,0c-.44-.08-.68-.27-.73-.55a.74.74,0,0,1,.3-.67c-.28-.07-.44-.21-.47-.42a.58.58,0,0,1,.31-.65.59.59,0,0,1-.49-.48l0-.23L73.4,45l0,.23a.3.3,0,0,0,.22.27l.31,0c.14,0,.21.09.22.17s0,.16-.14.21l-.3.14a.31.31,0,0,0-.12.35.23.23,0,0,0,.21.2l.33,0a.2.2,0,0,1,.2.17.19.19,0,0,1-.15.21l-.32.13a.34.34,0,0,0-.13.35c0,.19.11.27.25.25l.24-.09.2-.13.49.32s0,.07,0,.1A2.42,2.42,0,0,1,74.17,48.18Z"/><path d="M72.7,51.29l0-.32a2.45,2.45,0,0,1-1.54-.47.25.25,0,0,1-.08-.18L71,48.89c0-.17.05-.26.19-.27a.17.17,0,0,1,.17.11c.14.25.33.56.58.92s.57.73.69.73a2.79,2.79,0,0,1,0-.81c.09-.28.33-.42.72-.44a2.81,2.81,0,0,1,1,.12c.44.15.66.38.68.69s-.32.75-1,.93l0,.36Zm1.08-1q.09,0,.18-.15a.49.49,0,0,0,.07-.24c0-.18-.08-.27-.22-.27s-.12.12-.1.35S73.74,50.29,73.78,50.28Z"/><path d="M73.52,53.54a1,1,0,0,1-.67-.29.84.84,0,0,1-.26-.67.93.93,0,0,1,.52-.79c-.3-.16-.45-.35-.43-.59V51l1.39.07v.1c0,.25.07.39.23.41a1.06,1.06,0,0,1,.55.21.79.79,0,0,1,.33.74.93.93,0,0,1-.65.84A2.2,2.2,0,0,1,73.52,53.54Zm.27-.47a1,1,0,0,0,.43-.08c.18-.08.28-.17.29-.29a.18.18,0,0,0-.07-.15.2.2,0,0,0-.16-.07,1,1,0,0,0-.46.07c-.19.08-.29.19-.3.34S73.61,53.06,73.79,53.07Z"/><path d="M35.89,78.13a3,3,0,0,0,1.55.44c.89,0,1.4-.47,1.4-1.15s-.36-1-1.26-1.33c-1.1-.39-1.77-1-1.77-1.9A1.92,1.92,0,0,1,38,72.37a3,3,0,0,1,1.48.33l-.24.7A2.67,2.67,0,0,0,38,73.08c-.92,0-1.27.55-1.27,1,0,.63.41.93,1.34,1.29,1.13.44,1.71,1,1.71,2s-.77,1.93-2.35,1.93a3.56,3.56,0,0,1-1.71-.42Z"/><path d="M40.91,79.18v-6.7h.94L44,75.87a19,19,0,0,1,1.21,2.18h0c-.08-.9-.1-1.71-.1-2.76v-2.8h.81v6.7h-.87l-2.13-3.4a19.5,19.5,0,0,1-1.25-2.24h0c.05.85.07,1.65.07,2.77v2.86Z"/><path d="M48.54,77.07l-.7,2.11H47l2.27-6.7h1.05l2.29,6.7h-.93l-.72-2.11Zm2.19-.67-.65-1.93c-.15-.44-.25-.84-.35-1.23h0c-.1.4-.21.81-.34,1.22l-.65,1.94Z"/><path d="M58.07,79a4.23,4.23,0,0,1-1.77.32A3.13,3.13,0,0,1,53,75.89a3.33,3.33,0,0,1,3.5-3.52,3.56,3.56,0,0,1,1.59.3l-.2.7a3.17,3.17,0,0,0-1.36-.28,2.49,2.49,0,0,0-2.61,2.77,2.44,2.44,0,0,0,2.57,2.7,3.4,3.4,0,0,0,1.41-.28Z"/></g></g></svg>