<?xml version="1.0" encoding="utf-8"?>
<!-- Generator: Adobe Illustrator 24.1.1, SVG Export Plug-In . SVG Version: 6.00 Build 0)  -->
<svg version="1.1" id="Layer_1" xmlns="http://www.w3.org/2000/svg" xmlns:xlink="http://www.w3.org/1999/xlink" x="0px" y="0px"
	 viewBox="0 0 31.3 31.3" style="enable-background:new 0 0 31.3 31.3;" xml:space="preserve">
<style type="text/css">
	.st0{fill:#999999;}
</style>
<g id="Layer_2_1_">
	<g id="Layer_9">
		<g id="Group_11">
			<g id="Group_10">
				<path id="Path_19" class="st0" d="M28.3,2.7h-2.9V1.8c-0.1-1-1-1.8-2-1.7c-0.9,0.1-1.6,0.8-1.7,1.7l0,0v0.9H11.4V1.8
					c0.1-1-0.7-1.9-1.7-2s-1.9,0.7-2,1.7c0,0.1,0,0.2,0,0.3v0.9H7.6H5.1c-1.7,0-3,1.4-3.1,3v10.4c0,0.3,0.3,0.6,0.6,0.6
					c0.3,0,0.6-0.3,0.6-0.6V9h22.1C25.7,9,26,8.7,26,8.4c0-0.3-0.3-0.6-0.6-0.6H3.3v-2c0-1,0.8-1.9,1.8-1.9c0,0,0,0,0,0h2.4h0.2v0.8
					c-0.1,1,0.7,1.9,1.7,2s1.9-0.7,2-1.7c0-0.1,0-0.2,0-0.3V3.9h10.3v0.8c-0.1,1,0.7,1.9,1.7,2s1.9-0.7,2-1.7c0-0.1,0-0.2,0-0.3V3.9
					h2.9c1,0,1.8,0.8,1.8,1.8V29c0,0.6-0.5,1.1-1.1,1.1s-1.1-0.5-1.1-1.1v-1.6c0-0.3-0.3-0.6-0.6-0.6c0,0,0,0,0,0h-7.1
					c-0.3,0-0.6,0.3-0.6,0.6s0.3,0.6,0.6,0.6c0,0,0,0,0,0h6.5v1c0,0.4,0.1,0.8,0.3,1.1H2.3c-0.6,0-1.1-0.5-1.1-1.1c0,0,0,0,0,0l0,0
					v-1h13.7c0.3,0,0.6-0.3,0.6-0.6l0,0c0-0.3-0.3-0.6-0.6-0.6l0,0H8.8c2.1-1.8,2.3-5,0.5-7.1s-5-2.3-7.1-0.5
					c-2.1,1.8-2.3,4.9-0.5,7c0.2,0.2,0.4,0.4,0.5,0.5H0.6c-0.3,0-0.6,0.3-0.6,0.6c0,0,0,0,0,0l0,0V29c0,1.3,1,2.3,2.3,2.3H29
					c1.3,0,2.3-1,2.3-2.3V5.8C31.3,4.1,30,2.7,28.3,2.7z M10.2,4.7c0.1,0.3-0.1,0.7-0.4,0.7C9.4,5.5,9.1,5.3,9,5c0-0.1,0-0.2,0-0.3
					l0,0V1.8c0-0.3,0.3-0.6,0.6-0.6c0.3,0,0.6,0.3,0.6,0.6l0,0L10.2,4.7z M24.2,4.7c0,0.3-0.3,0.6-0.6,0.6S23,5,23,4.7c0,0,0,0,0,0
					V1.8c0-0.3,0.3-0.6,0.6-0.6s0.6,0.3,0.6,0.6c0,0,0,0,0,0l0,0V4.7z M1.7,23c0-2.1,1.7-3.8,3.8-3.8s3.8,1.7,3.8,3.8
					c0,2.1-1.7,3.8-3.8,3.8h0C3.4,26.8,1.7,25.1,1.7,23z"/>
			</g>
		</g>
		<g id="Group_13">
			<g id="Group_12">
				<path id="Path_20" class="st0" d="M28.7,8c-0.2-0.2-0.6-0.2-0.8,0c0,0,0,0,0,0c-0.2,0.2-0.2,0.6,0,0.9c0.2,0.2,0.6,0.2,0.9,0
					C28.9,8.6,28.9,8.2,28.7,8z"/>
			</g>
		</g>
		<g id="Group_15">
			<g id="Group_14">
				<path id="Path_21" class="st0" d="M18.3,27c-0.2-0.2-0.6-0.2-0.9,0c-0.2,0.3-0.2,0.7,0.1,0.9c0.2,0.2,0.5,0.2,0.8,0
					C18.5,27.6,18.5,27.3,18.3,27C18.3,27,18.3,27,18.3,27L18.3,27z"/>
			</g>
		</g>
		<g id="Group_17">
			<g id="Group_16">
				<path id="Path_22" class="st0" d="M13.9,18.6c-1.3,0-2.3,1-2.3,2.3s1,2.3,2.3,2.3c1.3,0,2.3-1,2.3-2.3c0,0,0,0,0,0l0,0
					C16.2,19.6,15.1,18.6,13.9,18.6z M13.9,22c-0.6,0-1.1-0.5-1.1-1.1s0.5-1.1,1.1-1.1l0,0c0.6,0,1.1,0.5,1.1,1.1S14.5,22,13.9,22z"
					/>
			</g>
		</g>
		<g id="Group_19">
			<g id="Group_18">
				<path id="Path_23" class="st0" d="M19.5,18.6c-1.3,0-2.3,1-2.3,2.3s1,2.3,2.3,2.3c1.3,0,2.3-1,2.3-2.3c0,0,0,0,0,0l0,0
					C21.9,19.6,20.8,18.6,19.5,18.6C19.6,18.6,19.6,18.6,19.5,18.6z M19.5,22c-0.6,0-1.1-0.5-1.1-1.1l0,0c0-0.6,0.5-1.1,1.1-1.1
					c0.6,0,1.1,0.5,1.1,1.1S20.2,22,19.5,22z"/>
			</g>
		</g>
		<g id="Group_21">
			<g id="Group_20">
				<path id="Path_24" class="st0" d="M25.3,18.6c-1.3,0-2.3,1-2.3,2.3s1,2.3,2.3,2.3c1.3,0,2.3-1,2.3-2.3c0,0,0,0,0,0l0,0
					C27.6,19.6,26.6,18.6,25.3,18.6C25.3,18.6,25.3,18.6,25.3,18.6z M25.3,22c-0.6,0-1.1-0.5-1.1-1.1s0.5-1.1,1.1-1.1
					s1.1,0.5,1.1,1.1S25.9,22,25.3,22L25.3,22z"/>
			</g>
		</g>
		<g id="Group_23">
			<g id="Group_22">
				<path id="Path_25" class="st0" d="M8.1,12.2c-1.3,0-2.3,1-2.3,2.3s1,2.3,2.3,2.3s2.3-1,2.3-2.3l0,0C10.5,13.3,9.4,12.2,8.1,12.2
					C8.1,12.2,8.1,12.2,8.1,12.2z M8.1,15.7c-0.6,0-1.1-0.5-1.1-1.1c0-0.6,0.5-1.1,1.1-1.1c0.6,0,1.1,0.5,1.1,1.1
					C9.2,15.2,8.7,15.7,8.1,15.7L8.1,15.7z"/>
			</g>
		</g>
		<g id="Group_25">
			<g id="Group_24">
				<path id="Path_26" class="st0" d="M19.5,12.2c-1.3,0-2.3,1-2.3,2.3s1,2.3,2.3,2.3s2.3-1,2.3-2.3l0,0l0,0
					C21.9,13.3,20.8,12.2,19.5,12.2z M19.5,15.7c-0.6,0-1.1-0.5-1.1-1.1s0.5-1.1,1.1-1.1s1.1,0.5,1.1,1.1
					C20.6,15.2,20.2,15.7,19.5,15.7L19.5,15.7z"/>
			</g>
		</g>
		<g id="Group_27">
			<g id="Group_26">
				<path id="Path_27" class="st0" d="M25.3,12.2c-1.3,0-2.3,1-2.3,2.3s1,2.3,2.3,2.3s2.3-1,2.3-2.3l0,0l0,0
					C27.6,13.3,26.6,12.2,25.3,12.2z M25.3,15.7c-0.6,0-1.1-0.5-1.1-1.1s0.5-1.1,1.1-1.1s1.1,0.5,1.1,1.1
					C26.4,15.2,25.9,15.7,25.3,15.7L25.3,15.7z"/>
			</g>
		</g>
		<g id="Group_29">
			<g id="Group_28">
				<path id="Path_28" class="st0" d="M13.9,12.2c-1.3,0-2.3,1-2.3,2.3c0,1.3,1,2.3,2.3,2.3c1.3,0,2.3-1,2.3-2.3c0,0,0,0,0,0
					C16.2,13.3,15.1,12.2,13.9,12.2z M13.9,15.7c-0.6,0-1.1-0.5-1.1-1.1s0.5-1.1,1.1-1.1c0.6,0,1.1,0.5,1.1,1.1
					C15,15.2,14.5,15.7,13.9,15.7L13.9,15.7z"/>
			</g>
		</g>
		<g id="Group_31">
			<g id="Group_30">
				<path id="Path_29" class="st0" d="M7.7,21.5c-0.2-0.2-0.6-0.2-0.9,0l0,0l-2,2l-0.7-0.7c-0.2-0.2-0.6-0.2-0.9,0
					c-0.2,0.2-0.2,0.6,0,0.9l0,0l1.1,1.1c0.2,0.2,0.6,0.2,0.8,0c0,0,0,0,0,0l0,0l2.4-2.4C7.8,22.2,7.3,21.9,7.7,21.5z"/>
			</g>
		</g>
	</g>
</g>
</svg>
