<svg xmlns="http://www.w3.org/2000/svg" viewBox="0 0 576.4 389.37"><defs><style>.cls-1{fill:#3f9843;}.cls-2,.cls-3{fill:none;stroke:#fff;stroke-miterlimit:10;}.cls-2{stroke-width:2px;}.cls-3{stroke-width:3px;}.cls-4{fill:#fff;}</style></defs><g id="Layer_2" data-name="Layer 2"><g id="Layer_7" data-name="Layer 7"><path class="cls-1" d="M512.4,371a18.4,18.4,0,0,1-18.4,18.4H18.8A18.41,18.41,0,0,1,.4,371V18.4A18.4,18.4,0,0,1,18.8,0H494a18.4,18.4,0,0,1,18.4,18.4V371Z"/><path class="cls-1" d="M559.66,0H285.23V389.37H559.66c9.24,0,16.74-8.24,16.74-18.4V18.4C576.4,8.24,568.91,0,559.66,0Z"/><path class="cls-2" d="M576.23,123.15H526.67a6.76,6.76,0,0,0-6.76,6.76V259.45a6.76,6.76,0,0,0,6.76,6.76h49.56"/><path class="cls-2" d="M0,123.15H50.13a6.76,6.76,0,0,1,6.76,6.76V259.45a6.76,6.76,0,0,1-6.76,6.76H0"/><line class="cls-3" x1="285.23" y1="0.15" x2="285.23" y2="389.15"/><circle class="cls-3" cx="284.73" cy="185.65" r="78"/><circle class="cls-4" cx="284.73" cy="185.65" r="5"/></g></g></svg>