<?xml version="1.0" encoding="utf-8"?>
<!-- Generator: Adobe Illustrator 24.1.1, SVG Export Plug-In . SVG Version: 6.00 Build 0)  -->
<svg version="1.1" id="Layer_1" xmlns="http://www.w3.org/2000/svg" xmlns:xlink="http://www.w3.org/1999/xlink" x="0px" y="0px"
	 viewBox="0 0 72.6 75" style="enable-background:new 0 0 72.6 75;" xml:space="preserve">
<style type="text/css">
	.st0{fill:#006837;}
</style>
<g id="Layer_2_1_">
	<g id="Layer_11">
		<g id="foolad">
			<g id="Group_107">
				<path id="Path_189" class="st0" d="M36.4,73.9l-0.6-1c23-17,29.5-39.2,19.8-67.9l-0.4-1.2l7.9,3l0.1,0.3
					c2.1,6.5,3.2,13.3,3.4,20.2c0.2,6.1-0.8,12.3-3,18c-2.2,5.8-5.6,11.1-9.9,15.6C48.7,66.2,42.9,70.5,36.4,73.9z M57.1,5.9
					c2.3,6.7,3.6,13.6,4,20.7c0.3,6.3-0.5,12.6-2.4,18.6c-1.9,5.7-4.7,11-8.5,15.7c-2.2,2.8-4.7,5.4-7.3,7.8
					c21-14.3,27.4-34.3,19.4-60.8L57.1,5.9z"/>
			</g>
			<g id="Group_108">
				<path id="Path_190" class="st0" d="M58.7,13.6H13.5l-1,7H60C59.7,18.3,59.2,16,58.7,13.6z"/>
				<path id="Path_191" class="st0" d="M64.4,13.7L64.4,13.7L64.4,13.7L64.4,13.7z"/>
			</g>
			<g id="Group_109">
				<path id="Path_192" class="st0" d="M36,73.9c-6.4-3.4-12.3-7.8-17.4-13c-4.3-4.5-7.7-9.8-9.9-15.6c-2.1-5.8-3.1-11.9-3-18
					c0.2-6.8,1.4-13.6,3.4-20.1L9.2,7l7.9-3l-0.4,1.2C7.1,33.8,13.6,56,36.6,73L36,73.9z M10.2,7.8c-8,26.6-1.7,46.6,19.4,60.8
					c-2.7-2.4-5.1-5-7.3-7.8c-3.7-4.7-6.6-10-8.5-15.7c-1.9-6-2.7-12.3-2.4-18.6c0.4-7,1.7-14,4-20.7L10.2,7.8z"/>
			</g>
			<g id="Group_110">
				<path id="Path_193" class="st0" d="M36.5,74.9l-0.6-0.4c-6.3-3.7-12-8.2-17.1-13.4c-4.4-4.6-7.9-9.9-10.3-15.8
					C6.2,39.5,5,33.4,5,27.2C5.1,20.3,6.3,13.5,8.5,7l0.2-0.6l0.5-0.2C17.8,2.6,27,0.7,36.3,0.5c9.3-0.1,18.4,1.9,26.9,5.8l0.5,0.2
					L63.8,7c2.5,7.1,3.7,14.6,3.8,22.1c0,6.3-1.4,12.6-4,18.4c-4.7,10.4-13.3,19.2-26.5,27L36.5,74.9z M10.6,8.3
					c-8.5,27,0,47.9,25.9,63.7C62.6,56.3,70.5,36,61.6,8.3C45.5,1.1,28.8,1.1,10.6,8.3z"/>
			</g>
			<rect id="Rectangle_27" x="12.1" y="21.2" class="st0" width="48.4" height="5.2"/>
			<path id="Path_194" class="st0" d="M11.7,29.6h49l0-2.6h-49V29.6z"/>
			<rect id="Rectangle_28" x="11.7" y="30.2" class="st0" width="49" height="1.3"/>
			<path id="Path_195" class="st0" d="M57.2,8.1C48.6,11,43.1,1.9,36.6,5.5c-6.7-3.7-12.2,5.9-21.2,2.4c-0.3-0.1-1.2,4.1-1.2,4.1
				h44.1"/>
			<g id="Group_111">
				<path id="Path_196" class="st0" d="M22.7,42.6l1.8-2.4l0.7,0.6l-1.2,1.5l0.9,0.7l1.1-1.4l0.7,0.6l-1.1,1.4l1.6,1.2l-0.7,0.9
					L22.7,42.6z"/>
				<path id="Path_197" class="st0" d="M31.3,38.3c0.8,1,0.6,2.5-0.4,3.3c-0.1,0.1-0.2,0.1-0.3,0.2c-1.1,0.7-2.5,0.4-3.2-0.7
					c0,0,0,0,0,0c0-0.1-0.1-0.1-0.1-0.2c-0.8-1.1-0.6-2.6,0.5-3.4l0.2-0.1c1.1-0.7,2.5-0.4,3.2,0.6c0,0,0,0,0,0
					C31.2,38.1,31.3,38.2,31.3,38.3z M28.3,40.2c0.5,0.8,1.3,1.2,1.9,0.8c0.6-0.4,0.6-1.3,0.1-2.1c-0.5-0.8-1.3-1.2-1.9-0.8
					C27.7,38.6,27.8,39.4,28.3,40.2z"/>
				<path id="Path_198" class="st0" d="M37.1,37.2c0.3,1.3-0.4,2.6-1.7,2.9c-0.1,0-0.2,0.1-0.3,0.1c-1.3,0.2-2.5-0.7-2.7-1.9
					c0-0.1,0-0.2,0-0.2c-0.3-1.3,0.5-2.6,1.8-2.9c0,0,0,0,0,0c0.1,0,0.1,0,0.2,0c1.3-0.2,2.5,0.6,2.7,1.9
					C37.1,37,37.1,37.1,37.1,37.2z M33.5,37.8c0.1,1,0.7,1.6,1.4,1.5s1.1-0.9,0.9-1.8c-0.1-0.9-0.7-1.6-1.4-1.5
					C33.7,36,33.4,36.8,33.5,37.8L33.5,37.8z"/>
				<path id="Path_199" class="st0" d="M38.8,35l1.1,0.2l-0.8,4l1.9,0.4l-0.2,0.9l-3-0.6L38.8,35z"/>
				<path id="Path_200" class="st0" d="M42.8,40.1l-1,0.9l-1-0.6l3.9-3.4l1.3,0.8l-1.3,5.1l-1-0.6l0.3-1.3L42.8,40.1z M44.3,40.1
					l0.3-1.1c0.1-0.3,0.2-0.7,0.3-1l0,0c-0.2,0.2-0.5,0.5-0.7,0.7l-0.8,0.7L44.3,40.1z"/>
				<path id="Path_201" class="st0" d="M48.8,40.1c0.4,0.4,0.7,0.8,1,1.2c0.5,0.6,0.8,1.3,0.8,2c0,0.7-0.4,1.4-1,1.8
					c-0.6,0.5-1.4,0.7-2.1,0.5c-0.8-0.3-1.4-0.8-1.9-1.5c-0.3-0.3-0.5-0.7-0.7-1.1L48.8,40.1z M46.2,43.4c0.1,0.1,0.1,0.2,0.2,0.3
					c0.4,0.7,1.4,1,2.1,0.6c0.1-0.1,0.2-0.1,0.3-0.2c0.7-0.4,0.9-1.3,0.5-1.9c0,0,0,0,0,0c-0.1-0.1-0.1-0.2-0.2-0.3
					c-0.1-0.1-0.2-0.3-0.3-0.4L46.2,43.4z"/>
			</g>
			<g id="Group_112">
				<path id="Path_202" class="st0" d="M33.2,62.8h2.9v0.9h-1.8v1.1H36v0.9h-1.7v1.9h-1.1V62.8z"/>
				<path id="Path_203" class="st0" d="M40.4,67.5c-0.4,0.2-0.8,0.2-1.2,0.2c-1.3,0.1-2.4-0.8-2.5-2c0,0,0,0,0,0c0-0.1,0-0.2,0-0.4
					c-0.1-1.3,1-2.5,2.3-2.5c0,0,0,0,0,0c0.1,0,0.2,0,0.3,0c0.4,0,0.8,0.1,1.2,0.2l-0.2,0.9c-0.3-0.1-0.6-0.2-0.9-0.2
					c-0.9,0.1-1.5,0.9-1.4,1.8c0.1,0.7,0.7,1.3,1.4,1.4c0.3,0,0.6-0.1,0.9-0.2L40.4,67.5z"/>
			</g>
			<g id="Group_114">
				<g id="Group_113">
					<path id="Path_204" class="st0" d="M44.3,45.7c-3.2-4.3-9.3-5.1-13.6-1.9c-3.9,2.9-5,8.3-2.6,12.5l0,0c0.2,0.3,0.4,0.6,0.6,0.8
						c1.4,1.9,3.4,3.2,5.6,3.7l0.3,0.1h0.1c1.2,0.2,2.5,0.2,3.7,0h0.1c0.9-0.2,1.7-0.5,2.5-0.8c0.2,0,0.4-0.2,0.3-0.4
						c0-0.2-0.2-0.4-0.4-0.3c-0.1,0-0.1,0-0.2,0.1h0C40,59.7,39.5,59.9,39,60l1.6-2.7l3.1-0.6c-0.3,0.4-0.6,0.7-0.9,1.1
						c-0.1,0.1-0.2,0.4,0,0.5c0,0,0,0,0,0c0.2,0.1,0.4,0.1,0.5,0c0.6-0.6,1.1-1.2,1.5-1.9l0,0c0.7-1.2,1.1-2.4,1.3-3.8v0
						c0-0.1,0-0.2,0-0.3C46.3,49.9,45.6,47.6,44.3,45.7z M37.8,42.6c1.9,0.3,3.7,1.2,5.1,2.6l-0.5,4l-3,0.7L36.8,48v-2.9l0.6-0.4
						c0.2-0.1,0.2-0.4,0.1-0.5C37.4,44,37.2,44,37,44.1l0,0l-0.5,0.4l-2.6-1.6C35.1,42.5,36.5,42.4,37.8,42.6L37.8,42.6z M34,50.5
						l1.2-0.9l1.2-0.9l2.5,1.8L38,53.3h-3.1L34,50.5z M31.1,44.3c0.5-0.4,1.1-0.7,1.8-1l3.1,1.9V48l-2.6,1.9l-3-0.7l-0.6-3.8
						C30.2,45,30.7,44.6,31.1,44.3L31.1,44.3z M27.6,50.1c0.2-1.4,0.8-2.7,1.6-3.9l0.5,3.2l-2.2,2.2C27.5,51.1,27.5,50.6,27.6,50.1
						L27.6,50.1z M27.6,52.6l2.7-2.7l3,0.7l1,3.1l-1.9,2.9l-3.7-0.7C28.1,54.8,27.7,53.8,27.6,52.6L27.6,52.6z M29.2,56.7
						C29.2,56.7,29.2,56.7,29.2,56.7l3.1,0.6l1.6,2.7C32,59.5,30.4,58.3,29.2,56.7L29.2,56.7z M38,60.3c-1,0.2-2.1,0.2-3.1,0L33,57
						l1.9-2.9H38l1.9,2.9L38,60.3z M44.2,55.8l-3.7,0.7l-1.8-2.9l1-3l3-0.7l2.6,2.7C45.1,53.8,44.8,54.9,44.2,55.8L44.2,55.8z
						 M45.3,51.7l-2.2-2.3l0.4-3.4l0.1,0.1C44.8,47.8,45.4,49.7,45.3,51.7L45.3,51.7z"/>
				</g>
			</g>
			<g id="Group_116">
				<g id="Group_115">
					<path id="Path_205" class="st0" d="M38.5,43.4c-0.1-0.2-0.4-0.2-0.6,0c-0.2,0.1-0.2,0.4,0,0.6c0.1,0.2,0.4,0.2,0.6,0
						c0,0,0,0,0,0c0.1-0.1,0.1-0.2,0.1-0.3C38.6,43.6,38.6,43.5,38.5,43.4z"/>
				</g>
			</g>
			<g id="Group_118">
				<g id="Group_117">
					<path id="Path_206" class="st0" d="M42.2,58.7c-0.1-0.2-0.3-0.3-0.5-0.2c-0.2,0.1-0.3,0.3-0.2,0.5c0,0.1,0.1,0.1,0.2,0.2
						c0.2,0.1,0.4,0,0.5-0.2C42.2,59,42.2,58.8,42.2,58.7z"/>
				</g>
			</g>
		</g>
	</g>
</g>
</svg>
