<?xml version="1.0" encoding="utf-8"?>
<!-- Generator: Adobe Illustrator 24.1.1, SVG Export Plug-In . SVG Version: 6.00 Build 0)  -->
<svg version="1.1" id="Layer_1" xmlns="http://www.w3.org/2000/svg" xmlns:xlink="http://www.w3.org/1999/xlink" x="0px" y="0px"
	 viewBox="0 0 512 512" style="enable-background:new 0 0 512 512;" xml:space="preserve">
<style type="text/css">
	.st0{fill:#FFCD00;}
</style>
<g id="Page-1">
	<g id="_x30_33---Flip-Calendar">
		<path id="Shape" class="st0" d="M486.4,42.7h-9.3C473,18,451.6,0,426.7,0s-46.3,18-50.4,42.7H332C327.9,18,306.6,0,281.6,0
			s-46.3,18-50.4,42.7h-35.7C191.4,18,170,0,145.1,0S98.8,18,94.6,42.7H76.8c-14.1,0-25.6,11.5-25.6,25.6v273.1
			c0.7,38.3-16,74.8-45.4,99.3c-5.2,4.3-7.2,11.5-4.8,18c2.4,6.4,8.5,10.7,15.3,10.7h34.8v17.1c0,14.1,11.5,25.6,25.6,25.6h409.6
			c14.1,0,25.6-11.5,25.6-25.6V68.3C512,54.1,500.5,42.7,486.4,42.7L486.4,42.7z M426.7,17.1c15.5,0.1,29,10.6,32.9,25.6h-65.8
			C397.6,27.6,411.1,17.1,426.7,17.1L426.7,17.1z M281.6,17.1c15.5,0.1,29,10.6,32.9,25.6h-65.8C252.6,27.6,266.1,17.1,281.6,17.1
			L281.6,17.1z M145.1,17.1c15.5,0.1,29,10.6,32.9,25.6h-65.8C116,27.6,129.5,17.1,145.1,17.1z M494.9,486.4c0,4.7-3.8,8.5-8.5,8.5
			H76.8c-4.7,0-8.5-3.8-8.5-8.5v-17.1h368.6c6.8,0,13.4-2,19-5.7c16.9-11.7,30.4-27.7,39-46.4L494.9,486.4z M446.5,449.4
			c-2.9,1.9-6.2,2.9-9.6,2.9l-419.1,0.5c32.5-27.9,50.9-68.7,50.4-111.4V68.3c0-4.7,3.8-8.5,8.5-8.5h17.8
			c4.2,24.6,25.5,42.6,50.4,42.7c4.7,0,8.5-3.8,8.5-8.5s-3.8-8.5-8.5-8.5c-15.5-0.1-29-10.6-32.9-25.6h119
			c4.2,24.6,25.5,42.6,50.4,42.7c4.7,0,8.5-3.8,8.5-8.5s-3.8-8.5-8.5-8.5c-15.5-0.1-29-10.6-32.9-25.6h127.6
			c4.2,24.6,25.5,42.6,50.4,42.7c4.7,0,8.5-3.8,8.5-8.5s-3.8-8.5-8.5-8.5c-15.5-0.1-29-10.6-32.9-25.6h92.7c4.7,0,8.5,3.8,8.5,8.5
			v273.1C494.9,387.7,475.9,430.1,446.5,449.4L446.5,449.4z"/>
		<path id="Shape_1_" class="st0" d="M204.8,315.7c28.3,0,51.2-22.9,51.2-51.2v-68.3c0-28.3-22.9-51.2-51.2-51.2
			s-51.2,22.9-51.2,51.2v68.3C153.6,292.8,176.5,315.7,204.8,315.7z M170.7,196.3c0-18.9,15.3-34.1,34.1-34.1s34.1,15.3,34.1,34.1
			v68.3c0,18.9-15.3,34.1-34.1,34.1s-34.1-15.3-34.1-34.1L170.7,196.3L170.7,196.3z"/>
		<path id="Shape_2_" class="st0" d="M298.7,298.7c-4.7,0-8.5,3.8-8.5,8.5s3.8,8.5,8.5,8.5H367c4.7,0,8.5-3.8,8.5-8.5
			s-3.8-8.5-8.5-8.5h-25.6V153.6c0-3.5-2.1-6.6-5.3-7.9c-3.2-1.3-6.9-0.6-9.3,1.8l-34.1,34.1c-3.2,3.3-3.2,8.7,0.1,12
			c3.3,3.3,8.6,3.3,12,0.1l19.6-19.6v124.5L298.7,298.7z"/>
		<path id="Shape_3_" class="st0" d="M409.6,341.3H136.5c-4.7,0-8.5,3.8-8.5,8.5s3.8,8.5,8.5,8.5h273.1c4.7,0,8.5-3.8,8.5-8.5
			C418.1,345.2,414.3,341.3,409.6,341.3z"/>
		<path id="Shape_4_" class="st0" d="M392.5,384H153.6c-4.7,0-8.5,3.8-8.5,8.5s3.8,8.5,8.5,8.5h238.9c4.7,0,8.5-3.8,8.5-8.5
			S397.2,384,392.5,384z"/>
	</g>
</g>
</svg>
