<?xml version="1.0" encoding="utf-8"?>
<!-- Generator: Adobe Illustrator 24.1.1, SVG Export Plug-In . SVG Version: 6.00 Build 0)  -->
<svg version="1.1" id="Capa_1" xmlns="http://www.w3.org/2000/svg" xmlns:xlink="http://www.w3.org/1999/xlink" x="0px" y="0px"
	 viewBox="0 0 512 512" style="enable-background:new 0 0 512 512;" xml:space="preserve">
<style type="text/css">
	.st0{fill:#FFCD00;}
</style>
<path class="st0" d="M242.2,442h27.7c4.2,0,7.5-3.4,7.5-7.5s-3.4-7.5-7.5-7.5h-27.7c-4.2,0-7.5,3.4-7.5,7.5S238,442,242.2,442
	L242.2,442z"/>
<path class="st0" d="M451.3,43.6c-1-11.7-10.6-20.5-22.3-20.5h-39.4v-4.5C389.6,8.4,381.2,0,371,0H213.5c-4.2,0-7.5,3.4-7.5,7.5
	s3.4,7.5,7.5,7.5H371c2,0,3.6,1.6,3.6,3.6v53.5c0,4.2,3.4,7.5,7.5,7.5s7.5-3.4,7.5-7.5V38.2H429c3.9,0,7,2.9,7.3,6.7
	c1.4,16.1,3.1,48.1-0.7,80.9c-4.4,38.7-15,67.3-31.3,85c-10.6,11.6-23.5,18.4-39,20.5c15.3-21.7,24.3-48.2,24.3-76.7v-52.5
	c0-4.2-3.4-7.5-7.5-7.5c-4.2,0-7.5,3.4-7.5,7.5v52.5c0,65.4-53.2,118.5-118.5,118.5S137.5,220,137.5,154.7V18.6c0-2,1.6-3.6,3.6-3.6
	h42.3c4.2,0,7.5-3.4,7.5-7.5S187.6,0,183.4,0H141c-10.3,0-18.6,8.4-18.6,18.6v4.5H83c-11.7,0-21.3,8.8-22.3,20.5
	C57.5,81.7,54.5,175.2,96.6,221c16,17.4,36.7,26.2,61.6,26.2c0.5,0,1-0.1,1.4-0.1c12.9,13.5,28.7,24.3,46.3,31.4
	c0.7,13.4,6.8,25.5,16,34c0,0.1,0,0.3,0,0.4c2.2,27.5,2.1,55.3-0.3,82.8h-11.8c-13.2,0-24,10.8-24,24V458H183c-13.2,0-24,10.8-24,24
	v22.4c0,4.2,3.4,7.5,7.5,7.5h178.9c4.2,0,7.5-3.4,7.5-7.5V482c0-13.2-10.8-24-24-24H326v-38.3c0-13.2-10.8-24-24-24h-11.8
	c-2.4-27.5-2.5-55.3-0.3-82.8c0-0.2,0-0.3,0-0.4c9.3-8.6,15.3-20.6,16-34c17.6-7.1,33.3-17.9,46.3-31.4c0.5,0.1,0.9,0.1,1.4,0.1
	c24.9,0,45.7-8.8,61.6-26.2C457.5,175.2,454.5,81.7,451.3,43.6L451.3,43.6z M107.7,210.9c-16.3-17.8-26.8-46.4-31.3-85
	c-3.8-32.9-2-64.8-0.7-80.9c0.3-3.8,3.5-6.7,7.3-6.7h39.4v116.5c0,28.5,9,55,24.3,76.7C131.2,229.2,118.3,222.4,107.7,210.9z
	 M329,473.2c4.9,0,8.9,4,8.9,8.9V497H174.1v-14.9c0-4.9,4-8.9,8.9-8.9H329z M302.1,410.9c4.9,0,8.9,4,8.9,8.9v38.3H201v-38.3
	c0-4.9,4-8.9,8.9-8.9H302.1z M237.7,322.5c5.7,2.2,11.8,3.5,18.3,3.5s12.6-1.2,18.3-3.5c-1.4,24.4-1.1,49,0.9,73.4h-38.5
	C238.8,371.5,239.1,346.9,237.7,322.5z M256,310.9c-16.6,0-30.5-11.5-34.2-27c10.9,2.9,22.4,4.4,34.2,4.4c11.8,0,23.3-1.5,34.2-4.4
	C286.5,299.3,272.6,310.9,256,310.9L256,310.9z"/>
<path class="st0" d="M92.3,366.1c-4.2,0-7.5,3.4-7.5,7.5v6.3c0,4.2,3.4,7.5,7.5,7.5c4.2,0,7.5-3.4,7.5-7.5v-6.3
	C99.8,369.4,96.4,366.1,92.3,366.1z"/>
<path class="st0" d="M115.5,389.7h-6.3c-4.2,0-7.5,3.4-7.5,7.5s3.4,7.5,7.5,7.5h6.3c4.2,0,7.5-3.4,7.5-7.5S119.7,389.7,115.5,389.7z
	"/>
<path class="st0" d="M92,406.6c-4.2,0-7.5,3.4-7.5,7.5v6.3c0,4.2,3.4,7.5,7.5,7.5c4.2,0,7.5-3.4,7.5-7.5v-6.3
	C99.5,410,96.1,406.6,92,406.6z"/>
<path class="st0" d="M75,389.3h-6.3c-4.2,0-7.5,3.4-7.5,7.5s3.4,7.5,7.5,7.5H75c4.2,0,7.5-3.4,7.5-7.5S79.2,389.3,75,389.3z"/>
<path class="st0" d="M404.4,270.2c-4.2,0-7.5,3.4-7.5,7.5v6.3c0,4.2,3.4,7.5,7.5,7.5s7.5-3.4,7.5-7.5v-6.3
	C411.9,273.5,408.5,270.2,404.4,270.2z"/>
<path class="st0" d="M427.6,293.7h-6.3c-4.2,0-7.5,3.4-7.5,7.5s3.4,7.5,7.5,7.5h6.3c4.2,0,7.5-3.4,7.5-7.5S431.8,293.7,427.6,293.7z
	"/>
<path class="st0" d="M404,310.7c-4.2,0-7.5,3.4-7.5,7.5v6.3c0,4.2,3.4,7.5,7.5,7.5s7.5-3.4,7.5-7.5v-6.3
	C411.6,314.1,408.2,310.7,404,310.7z"/>
<path class="st0" d="M387.1,293.4h-6.3c-4.2,0-7.5,3.4-7.5,7.5s3.4,7.5,7.5,7.5h6.3c4.2,0,7.5-3.4,7.5-7.5S391.2,293.4,387.1,293.4z
	"/>
</svg>
