<?xml version="1.0" encoding="utf-8"?>
<!-- Generator: Adobe Illustrator 24.1.1, SVG Export Plug-In . SVG Version: 6.00 Build 0)  -->
<svg version="1.1" id="Layer_1" xmlns="http://www.w3.org/2000/svg" xmlns:xlink="http://www.w3.org/1999/xlink" x="0px" y="0px"
	 viewBox="0 0 750 450" style="enable-background:new 0 0 750 450;" xml:space="preserve">
<style type="text/css">
	.st0{fill:#FFDA1A;}
	.st1{fill:#EA0303;}
	.st2{fill:#154692;}
	.st3{fill:none;stroke:#154692;stroke-miterlimit:10;}
</style>
<path class="st0" d="M374.8,176.9c-3.8,4.4-14.8,19-40.4,11.3l-6.4,14.9c0,0,18.1,6.8,8.7,31.3c-12.5,28.6,13.3,29.7,13.3,29.7
	s16.8,0.7,24.9,9.6l0,0.1c0,0,0,0,0-0.1c0,0,0,0,0,0.1l0-0.1c8.1-8.9,24.9-9.6,24.9-9.6s25.8-1.1,13.3-29.7
	c-9.4-24.5,8.7-31.3,8.7-31.3l-6.4-14.9c-25.6,7.7-36.5-6.9-40.4-11.3l-0.2-0.2L374.8,176.9z"/>
<path class="st0" d="M375,176.7"/>
<path class="st1" d="M376.2,208c0,0-0.5,2.2,2.7,6.1c5.1,4.9,0.8,8.3,0.8,8.3h-9.5c0,0-3.3-2.5,0.3-7.7c0,0,0.7,3,1.1,2.9
	c0.4-0.1-0.5-3.5,1.9-6.7c0,0-0.3,3.1,1,4C374.3,211.8,375,209.6,376.2,208z"/>
<g>
	<g>
		<path class="st2" d="M380.2,225h-10.3c-0.6,0-1.1-0.5-1.1-1.1c0-0.6,0.5-1.1,1.1-1.1h10.3c0.6,0,1.1,0.5,1.1,1.1
			C381.3,224.5,380.8,225,380.2,225z"/>
	</g>
</g>
<g>
	<g>
		<path class="st2" d="M378.4,228.4c-0.2,0.1-0.4,0.3-0.6,0.4c-1.4,1.2-2.4,3-2.8,4.8c0-0.2-0.2-0.7-0.2-0.9
			c-0.1-0.2-0.1-0.5-0.2-0.7c-0.2-0.4-0.3-0.8-0.6-1.2c-0.4-0.8-1.1-1.5-1.7-2.1c-0.4-0.3-0.8-0.4-1.2-0.7c-0.3-0.2-0.5-0.5-0.5-0.9
			c0-0.6,0.5-1.1,1.1-1.1h6.6c0.6,0,1.1,0.5,1.1,1.1C379.4,227.7,378.9,228.1,378.4,228.4z"/>
	</g>
</g>
<path class="st3" d="M375,237.1"/>
<path class="st2" d="M398.7,239.3c-0.2-1.5-0.7-3.2-2.3-3.8c-1.3-0.5-2.7,0-3.7,0.9c-1,0.9-1.7,2.3-0.8,3.5c0.6,0.7,2.1,1.7,3,1.2
	c-5.1,2.4-5.8-4.1-2.5-6.4c0-0.4-0.1-0.8-0.1-1.1c-0.6-3.3-3.5-5.9-6.8-6.3c-3.4-0.4-6.5,0.9-8.4,3.6c-1.1,1.6-1.8,3.4-2,5.4
	c0,0-0.1,0.4-0.1,0.4s-0.1-0.3-0.1-0.4c-0.2-1.9-0.9-3.8-2-5.4c-1.9-2.8-5-4.1-8.4-3.6c-3.3,0.4-6.2,3-6.8,6.3
	c-0.1,0.4-0.1,0.7-0.1,1.1c3.4,2.3,2.6,8.8-2.5,6.4c1,0.5,2.5-0.5,3-1.2c1-1.2,0.2-2.6-0.8-3.5c-1-0.9-2.4-1.3-3.7-0.9
	c-1.6,0.6-2.1,2.3-2.3,3.8c-0.3,2.1,0.1,4.1,2.1,5.2c1.6,0.9,3.7,0.7,5.4-0.1c0.8-0.4,1.3-0.9,1.8-1.6c0.3-0.4,0.5-0.8,0.7-1.2
	c0.1-0.3,0.5-1.2,0.3-1.5c1.4,1.8,3.1,2.5,5.3,2.1c0,0,1.6,0.5,1.1,2.3s1.8-2.1-0.2-3.5c0,0,1.4-5.4-2.7-4.6c0,0,1,2.4-1.6,2.5
	c-1.9,0.1-2.5-2.4-2.6-3.9c-0.1-1.2,0.5-2.4,1.5-3.2c0.8-0.7,1.9-1,3-1.2c4.2-0.5,5.9,4.7,5.5,6.1c-0.1,0.3-0.2,0.5-0.3,0.8
	c-0.1,0.4-0.3,0.8-0.4,1.2c-0.2,0.9-0.3,1.9-0.2,2.9c0.2,1.1,0.8,2,1.6,2.6c1,0.7,2.2,1.1,3.4,1.1c0.8,0,1.6-0.2,2.3-0.6
	c0.5-0.3,1-0.6,1.4-1c0.7-0.8,1.1-1.9,1.1-2.9c0-1-0.2-1.9-0.5-2.9c-0.1-0.4-0.3-0.8-0.5-1.1c-0.4-1.4,1.3-6.6,5.5-6.1
	c1.1,0.1,2.1,0.5,3,1.2c0.9,0.8,1.5,2,1.5,3.2c-0.1,1.5-0.6,3.9-2.6,3.9c-2.6-0.1-1.6-2.5-1.6-2.5c-4-0.8-2.7,4.6-2.7,4.6
	c-1.9,1.4,0.3,5.3-0.2,3.5s1.1-2.3,1.1-2.3c2.2,0.4,4-0.3,5.3-2.1c-0.2,0.3,0.2,1.2,0.3,1.5c0.2,0.4,0.4,0.8,0.7,1.2
	c0.5,0.7,1.1,1.2,1.8,1.6c1.6,0.8,3.7,1,5.4,0.1C398.5,243.4,398.9,241.4,398.7,239.3z M375.7,242.5c-1.5,0.3-3-0.5-3-2.1
	c0-1.2,1-2.2,2.2-2.2h0.3c1.2,0,2.2,1,2.2,2.2C377.4,241.4,376.7,242.3,375.7,242.5z"/>
<g>
	<path d="M346.3,228.7C346.4,228.7,346.4,228.7,346.3,228.7C346.4,228.7,346.4,228.7,346.3,228.7l0.5,0.4c0,0,0,0.1,0,0.1l-0.4,0.4
		c0,0-0.1,0-0.1,0l-0.4-0.4c0,0,0-0.1,0-0.1L346.3,228.7z M348.2,227c0.8,0,1.3,0.1,1.6,0.5c0.2,0.3,0.4,0.7,0.4,1.3
		c0,0.5-0.1,0.9-0.2,1.2c-0.2,0.4-0.6,0.6-1,0.6c-0.3,0-0.6,0-0.9-0.1c-0.4-0.1-0.6-0.2-0.6-0.4c0-0.1,0.1-0.2,0.3-0.2
		c0.1,0,0.1,0,0.3,0c0.1,0,0.2,0,0.3,0c0.4,0,0.6-0.4,0.6-1.2c0-0.8-0.2-1.2-0.5-1.2c-0.1,0-0.2,0.1-0.4,0.3
		c-0.2,0.2-0.3,0.3-0.4,0.4l-1-0.5c-0.1,0-0.1-0.1-0.1-0.1c0,0,0-0.1,0.1-0.1c0.1-0.1,0.3-0.3,0.6-0.4
		C347.5,227.1,347.9,227,348.2,227z"/>
	<path d="M347.2,225.4c0.2,0,0.4,0,0.7,0.1c0.3,0.1,0.5,0.1,0.6,0.2c0.2,0.1,0.3,0.2,0.3,0.3c0,0.1-0.1,0.1-0.3,0.2
		c-0.3,0.1-1.4,0.2-3.2,0.4l-1-1c-0.1-0.1-0.1-0.1-0.1-0.1c0,0,0,0,0.1,0c0.4-0.1,0.9-0.1,1.5-0.1
		C345.9,225.4,346.4,225.4,347.2,225.4z"/>
	<path d="M347.6,222.5c1,0.1,1.4,0.7,1.3,1.6c-0.1,0.8-0.5,1.1-1.2,1c-0.3,0-0.5-0.1-0.7-0.3c-0.1-0.1-0.1-0.1-0.1-0.2
		c0-0.1,0.1-0.1,0.2-0.1c0.2,0,0.3-0.1,0.4-0.2c0.1-0.1,0.1-0.3,0.2-0.6c0.1-0.4,0-0.6-0.1-0.6c0,0-0.1,0-0.2,0.1
		c-0.3,0.2-0.6,0.5-0.9,1l-0.9-0.6c-0.1,0-0.1-0.1-0.1-0.1c0,0,0,0,0-0.1c0.1-0.2,0.4-0.4,0.6-0.6
		C346.6,222.5,347.1,222.4,347.6,222.5z"/>
	<path d="M349.6,220.9l-0.1,0.3c-0.2,0.7-0.6,1-1.4,0.8c-0.3-0.1-0.8-0.2-1.3-0.3c-0.6-0.1-1-0.2-1.1-0.2c-0.1,0-0.2,0-0.2-0.1
		l-0.4-1c0-0.1,0-0.1,0-0.1c0,0,0,0,0.1,0l2.6,0.6c0.3,0.1,0.5,0,0.5-0.3l0-0.1L349.6,220.9z"/>
	<path d="M348.4,219.2c0.5,0.2,0.9,0.4,1.1,0.6c0.2,0.3,0.2,0.6,0.1,1.1l-0.1,0.2l-1.3-0.4l0.2-0.7c0-0.1,0-0.2,0-0.2
		c0,0-0.1,0-0.1,0c-0.2,0.1-0.4,0.2-0.6,0.3c0,0-0.1,0-0.1,0l-0.6-0.8c0,0-0.1-0.1,0-0.1c0,0,0,0,0.1-0.1
		C347.3,219,347.8,219,348.4,219.2z M350.7,220.1C350.8,220.1,350.8,220.1,350.7,220.1l0.4,0.5c0,0,0,0.1,0,0.1l-0.5,0.3
		c0,0-0.1,0-0.1,0l-0.3-0.5c0,0,0-0.1,0-0.1L350.7,220.1z"/>
	<path d="M346.4,215.1c0.1,0.1,0.2,0.3,0.3,0.6c0,0.4,0,0.7-0.1,1.1c0,0.1-0.1,0.2-0.2,0.4c-0.1,0.2-0.2,0.3-0.2,0.4
		c0,0.1,0,0.1,0.1,0.2c0.1,0.1,0.1,0.2,0.1,0.2c0,0.1-0.1,0.1-0.3,0.1c-0.1,0-0.2-0.2-0.4-0.4c-0.2-0.2-0.2-0.4-0.2-0.5
		c0,0.1,0,0.1,0,0.1c0,0,0.1-0.1,0.3-0.4c0.2-0.4,0.4-0.6,0.4-0.8c0-0.1,0.1-0.3,0.1-0.5c0-0.2,0-0.4,0-0.4
		C346.3,215.1,346.3,215,346.4,215.1z M346.9,216.3c0.3,0.1,0.7,0.3,1.2,0.5c0.7,0.3,1,0.4,1.2,0.5c0.1,0.1,0.3,0.2,0.5,0.4
		c0.2,0.2,0.3,0.3,0.4,0.4c0.1,0.2,0.2,0.3,0.2,0.3c0,0.1-0.2,0.1-0.4,0.1c-0.3,0-1.4-0.4-3.1-1l-0.1-1.1c0-0.1,0-0.1,0-0.1
		C346.8,216.2,346.8,216.2,346.9,216.3z"/>
	<path d="M350.5,211.7C350.5,211.7,350.5,211.7,350.5,211.7l0.2,0.5c0,0,0,0.1,0,0.1l-0.5,0.1l0.1,0.5c0,0,0,0.1,0,0.1l-0.5,0.1
		c0,0-0.1,0-0.1-0.1l-0.1-0.5c0,0,0-0.1,0-0.1l0.5-0.1l-0.1-0.4c0,0,0-0.1,0.1-0.1L350.5,211.7z M354,211.7l-0.1,0.2
		c-0.2,0.3-0.5,0.4-0.9,0.4c0.1,0.7,0,1.4-0.6,2.2c-0.3,0.5-0.6,0.7-0.9,0.8c-0.4,0.1-0.7,0-1.2-0.2c-0.2-0.1-0.3-0.2-0.5-0.4
		c-0.2-0.2-0.3-0.4-0.2-0.4c0.1-0.1,0.2-0.1,0.4,0c0.2,0.1,0.4,0.2,0.6,0.1c0.3-0.1,0.6-0.3,0.9-0.8c0.3-0.5,0.5-1,0.6-1.4
		c0-0.3,0-0.5,0-0.8c-0.1-0.2-0.1-0.3-0.1-0.4c0.1-0.1,0.1-0.1,0.3,0c0,0,0.1,0.1,0.2,0.2c0.1,0.1,0.1,0.1,0.1,0.2
		c0.1,0,0.1-0.1,0.2-0.2l0.1-0.2L354,211.7z"/>
	<path d="M351.9,208.2C351.9,208.2,352,208.2,351.9,208.2l0.1,0.6c0,0,0,0.1-0.1,0.1l-0.6,0.1c0,0-0.1,0-0.1-0.1l-0.1-0.5
		c0,0,0-0.1,0.1-0.1L351.9,208.2z M355.4,210.2l-0.2,0.2c-0.1,0.1-0.3,0.2-0.5,0.3c-0.2,0.1-0.3,0.1-0.4,0.1c0,0.4-0.1,0.8-0.3,1
		l-0.1,0.2l-1.1-0.9l0.3-0.3c-0.1,0-0.2-0.1-0.4-0.2c-0.2-0.2-0.3-0.4-0.4-0.7c-0.1-0.4-0.1-0.7,0.1-0.9c0.2-0.2,0.4-0.3,0.6-0.2
		c0.2,0,0.4,0.1,0.5,0.3c0.3,0.2,0.4,0.4,0.5,0.6l0.3-0.3L355.4,210.2z M353.5,209.6c-0.1,0-0.1,0-0.2,0c-0.1,0-0.2,0.1-0.2,0.1
		c-0.1,0.1-0.1,0.1-0.1,0.2c0,0.1,0,0.2,0,0.2c0,0,0.1,0,0.2,0s0.2-0.1,0.2-0.1c0.1-0.1,0.1-0.1,0.1-0.2
		C353.6,209.7,353.6,209.7,353.5,209.6z"/>
	<path d="M353,206.8C353.1,206.8,353.1,206.8,353,206.8l0.1,0.6c0,0,0,0.1-0.1,0.1l-0.6,0c0,0-0.1,0-0.1-0.1l0-0.5
		c0,0,0-0.1,0.1-0.1L353,206.8z M355.1,208.2c0.4,0.4,0.6,0.7,0.7,1c0.1,0.3-0.1,0.7-0.4,1l-0.2,0.2l-1-1l0.5-0.5
		c0.1-0.1,0.1-0.2,0-0.2c0,0-0.1,0-0.1,0c-0.2,0-0.4,0-0.7,0c0,0-0.1,0-0.1-0.1l-0.2-1c0-0.1,0-0.1,0-0.1c0,0,0,0,0.1,0
		C354.2,207.6,354.7,207.8,355.1,208.2z"/>
	<path d="M361,205.4l-0.2,0.1c-0.3,0.2-0.6,0.2-0.9,0c-0.1,0.7-0.5,1.3-1.3,1.9c-0.4,0.3-0.8,0.5-1.1,0.5c-0.4,0-0.7-0.2-1-0.6
		c-0.1-0.2-0.2-0.4-0.3-0.6c-0.1-0.3-0.1-0.4,0-0.5c0.1-0.1,0.2,0,0.3,0.1c0.2,0.2,0.3,0.3,0.5,0.3c0.3,0,0.6-0.1,1.1-0.5
		c0.5-0.4,0.8-0.7,1-1.1c0.1-0.2,0.2-0.5,0.2-0.8c0-0.2,0-0.3,0.1-0.4c0.1-0.1,0.2,0,0.3,0.1c0,0,0.1,0.1,0.1,0.2
		c0,0.1,0.1,0.2,0.1,0.2c0.1,0,0.1,0,0.2-0.1l0.2-0.1L361,205.4z M357.7,204.1C357.7,204.1,357.7,204.2,357.7,204.1l0,0.6
		c0,0,0,0.1-0.1,0l-0.5-0.1l-0.1,0.5c0,0,0,0.1-0.1,0l-0.5-0.1c0,0-0.1,0,0-0.1l0.1-0.5c0,0,0-0.1,0.1-0.1l0.5,0.1l0.1-0.5
		c0,0,0-0.1,0.1-0.1L357.7,204.1z"/>
	<path d="M363.1,204.3l-0.2,0.1c-0.5,0.3-0.9,0.3-1.1,0.1c0,0.2-0.1,0.4-0.1,0.5c-0.1,0.1-0.2,0.2-0.4,0.4l-0.4,0.2l-0.7-1.2
		l0.4-0.2c0.3-0.1,0.4-0.2,0.4-0.3c-0.2-0.1-0.4-0.1-0.5-0.2c0,0,0,0-0.1,0l-0.1,0c0,0-0.1,0-0.1-0.1c-0.1-0.2-0.1-0.4,0-0.6
		c0.1-0.3,0.3-0.5,0.6-0.6c0.2-0.1,0.4-0.2,0.6-0.2c0.3,0,0.4,0.1,0.5,0.3c0.1,0.1,0.1,0.3,0,0.5c0,0.1,0,0.2-0.1,0.4
		c0.1,0,0.2-0.1,0.4-0.2l0.3-0.2L363.1,204.3z"/>
	<path d="M362.7,200.8C362.8,200.8,362.8,200.9,362.7,200.8l-0.2,0.6c0,0,0,0.1-0.1,0l-0.5-0.2c0,0-0.1,0,0-0.1l0.2-0.5
		c0,0,0-0.1,0.1,0L362.7,200.8z M364.6,203.7l-0.2,0.1c-0.3,0.1-0.5,0.1-0.8-0.1c0,0.3-0.2,0.5-0.5,0.7l-0.3,0.1l-0.6-1.3l0.2-0.1
		c0.2-0.1,0.3-0.2,0.3-0.4c0,0,0-0.2,0-0.4c0-0.1,0-0.2,0.1-0.3c0.1,0,0.2,0,0.3,0.1c0.1,0.2,0.2,0.3,0.2,0.3c0.1,0.1,0.3,0.1,0.5,0
		l0.2-0.1L364.6,203.7z"/>
	<path d="M367.4,200.6c0.1,0.4,0.1,0.9,0,1.3c-0.2,0.6-0.6,1-1.2,1.2c-0.2,0.1-0.4,0.1-0.6,0.1c-0.2,0-0.4,0-0.6-0.1
		c-0.1,0.3-0.2,0.5-0.4,0.6l-0.2,0.1l-0.4-1.3l0.2-0.1c0.1,0,0.2-0.1,0.2-0.3c0,0,0-0.2,0-0.4c0-0.1,0-0.2,0.1-0.2
		c0.1,0,0.2,0.1,0.3,0.3c0.1,0.2,0.2,0.3,0.3,0.2c0,0,0.1-0.2,0.2-0.5c0.1-0.4,0.3-0.6,0.4-0.9c0.2-0.3,0.4-0.5,0.7-0.6
		c0.2-0.1,0.5-0.1,0.7,0.1C367.2,200.2,367.3,200.4,367.4,200.6z M366.8,201.2c-0.1-0.2-0.2-0.3-0.5-0.2c-0.3,0.1-0.5,0.4-0.8,0.9
		c0.1,0,0.2-0.1,0.3-0.1c0.3-0.1,0.6-0.2,0.8-0.4C366.7,201.4,366.8,201.3,366.8,201.2z"/>
	<path d="M373.9,201.6l-0.2,0c-0.1,0-0.1,0-0.2-0.1c-0.1-0.1-0.2-0.2-0.4-0.2c-0.2-0.1-0.5-0.1-0.8-0.1c-0.2,0-0.4,0.1-0.5,0.1
		c-0.1,0-0.1,0.1-0.1,0.1c0,0,0.1,0.1,0.4,0c0.4,0,0.6-0.1,0.8,0c0.3,0,0.4,0.2,0.5,0.5c0.1,0.9-0.6,1.4-2,1.5
		c-0.8,0.1-1.4,0-1.7-0.4c-0.2-0.2-0.3-0.5-0.4-0.9c0-0.3,0-0.6,0.1-0.9c0.1-0.3,0.2-0.5,0.3-0.5c0.2,0,0.3,0.1,0.3,0.2
		c0,0.1,0,0.2,0,0.3c0,0.1,0,0.2,0,0.3c0.1,0.6,0.6,0.8,1.6,0.7c0.5-0.1,0.9-0.1,1.2-0.2c0.1,0,0.2-0.1,0.1-0.1c0,0-0.1,0-0.2,0
		c-0.2,0-0.4,0-0.6,0c-0.3,0-0.5,0-0.6,0c-0.2,0-0.3-0.2-0.3-0.4c0-0.4,0.2-0.7,0.8-1c0.4-0.2,0.8-0.3,1.4-0.3l0.4,0L373.9,201.6z"
		/>
	<path d="M376.9,200.1c0,0.4-0.1,0.7-0.2,1c-0.2,0.4-0.4,0.6-0.7,0.6c-0.2,0-0.4-0.1-0.6-0.4c-0.1,0.3-0.3,0.4-0.5,0.4
		c-0.3,0-0.5-0.1-0.6-0.4c-0.1,0.3-0.3,0.4-0.6,0.4l-0.2,0l0-1.4l0.2,0c0.1,0,0.2-0.1,0.3-0.2c0-0.1,0.1-0.2,0.1-0.3
		c0.1-0.1,0.1-0.2,0.2-0.2c0.1,0,0.2,0.1,0.2,0.2l0.1,0.3c0.1,0.1,0.2,0.2,0.3,0.2c0.1,0,0.2-0.1,0.2-0.2c0-0.1,0-0.2,0.1-0.3
		c0-0.1,0.1-0.2,0.2-0.2c0.1,0,0.2,0.1,0.2,0.2l0.1,0.3c0.1,0.1,0.2,0.2,0.3,0.2c0.2,0,0.3-0.1,0.3-0.2c0-0.1,0-0.2,0-0.3
		c0,0,0-0.1-0.1-0.2l0.4-0.4c0,0,0.1,0,0.1,0C376.9,199.5,376.9,199.8,376.9,200.1z M374.8,198.4
		C374.8,198.4,374.8,198.3,374.8,198.4l0.4-0.4c0,0,0,0,0.1,0l0.3,0.4l0.4-0.3c0,0,0,0,0.1,0l0.4,0.4c0,0,0,0.1,0,0.1l-0.3,0.3
		c0,0-0.1,0-0.1,0l-0.4-0.4l0,0l-0.3,0.3c0,0-0.1,0-0.1,0L374.8,198.4z M375.2,197.7C375.2,197.7,375.2,197.6,375.2,197.7l0.4-0.4
		c0,0,0,0,0.1,0l0.4,0.4c0,0,0,0.1,0,0.1l-0.3,0.3c0,0-0.1,0-0.1,0L375.2,197.7z"/>
	<path d="M379.5,201.8c-0.1,0.8-0.4,1.3-0.8,1.7c-0.1,0-0.1,0.1-0.2,0l-1.4-0.2c-0.2,0-0.2-0.1-0.2-0.2c0-0.1,0.1-0.1,0.1-0.1
		c0.3-0.1,0.6-0.2,1.1-0.5c0.6-0.3,0.8-0.5,0.9-0.6c0-0.1-0.2-0.4-0.6-0.9l0.6-0.9c0-0.1,0.1-0.1,0.1,0c0.2,0.3,0.4,0.5,0.4,0.7
		C379.6,201,379.6,201.4,379.5,201.8z M379.3,198.9C379.4,198.9,379.4,199,379.3,198.9l-0.5,0.4c0,0-0.1,0-0.1,0l-0.4-0.5
		c0,0,0-0.1,0-0.1l0.4-0.3c0,0,0.1,0,0.1,0L379.3,198.9z"/>
	<path d="M382.1,202.4c-0.2,0.7-0.5,1.3-1,1.6c-0.1,0-0.1,0-0.2,0l-1.4-0.3c-0.2,0-0.2-0.1-0.2-0.3c0-0.1,0.1-0.1,0.1-0.1
		c0.3-0.1,0.7-0.2,1.1-0.4c0.6-0.2,0.9-0.4,0.9-0.6c0-0.1-0.1-0.4-0.5-1l0.7-0.9c0,0,0.1,0,0.1,0c0.2,0.3,0.3,0.5,0.3,0.8
		C382.2,201.7,382.2,202,382.1,202.4z"/>
	<path d="M384.6,203c-0.3,1-0.7,1.6-1.2,1.8c-0.1,0-0.1,0-0.2,0l-1.4-0.5c-0.2-0.1-0.2-0.1-0.2-0.3c0-0.1,0.1-0.1,0.2-0.1
		c0.3,0,0.6-0.1,1.1-0.2c0.6-0.1,0.9-0.3,0.9-0.4c-0.4-0.1-0.6-0.2-0.7-0.3c-0.2-0.2-0.3-0.5-0.1-0.8c0.1-0.3,0.3-0.6,0.5-0.9
		c0.3-0.4,0.6-0.5,0.9-0.4c0.3,0.1,0.5,0.4,0.5,0.9C384.9,202.2,384.8,202.5,384.6,203z M384.2,202.2c0-0.1,0-0.1-0.1-0.2
		c-0.1-0.1-0.1-0.1-0.2-0.2c-0.2-0.1-0.3,0-0.3,0.1c0,0.1,0.1,0.1,0.3,0.2C384.1,202.3,384.2,202.3,384.2,202.2z"/>
	<path d="M389.8,206.3l-0.2-0.1c-0.1,0-0.1-0.1-0.1-0.2c0-0.2-0.1-0.3-0.2-0.4c-0.1-0.2-0.3-0.4-0.6-0.5c-0.2-0.1-0.3-0.2-0.5-0.2
		c-0.1,0-0.1,0-0.1,0c0,0,0.1,0.1,0.3,0.2c0.3,0.2,0.5,0.3,0.6,0.4c0.2,0.2,0.2,0.4,0.1,0.7c-0.4,0.8-1.3,0.8-2.5,0.1
		c-0.7-0.4-1.1-0.8-1.1-1.3c0-0.3,0-0.6,0.2-0.9c0.1-0.2,0.3-0.5,0.6-0.7c0.3-0.2,0.5-0.3,0.6-0.2c0.1,0.1,0.2,0.2,0.1,0.4
		c0,0.1-0.1,0.1-0.2,0.2c-0.1,0.1-0.1,0.2-0.2,0.2c-0.3,0.5,0,1,0.9,1.5c0.5,0.3,0.8,0.4,1.1,0.5c0.1,0,0.2,0,0.2,0
		c0,0,0-0.1-0.1-0.1c-0.2-0.1-0.3-0.2-0.5-0.3c-0.3-0.1-0.4-0.3-0.5-0.4c-0.1-0.2-0.2-0.3-0.1-0.5c0.2-0.4,0.6-0.5,1.2-0.3
		c0.4,0.1,0.8,0.3,1.3,0.5l0.3,0.2L389.8,206.3z"/>
	<path d="M391.9,208.1l-0.2-0.1c-0.2-0.1-0.3-0.3-0.4-0.6c-0.1-0.2-0.1-0.5-0.1-0.7c-0.5,0.2-0.9,0.2-1.4-0.2l-0.4-0.3l0.9-1.1
		l0.3,0.2c0.2,0.2,0.4,0.3,0.5,0.3c0.1,0,0.1,0,0.1,0c0,0,0-0.1,0-0.1c0-0.3,0-0.6-0.1-1.1l0.6-0.5c0,0,0,0,0,0l2.3,0.8c0,0,0,0,0,0
		c0,0,0,0,0,0.1l-0.6,0.6c0,0,0,0-0.1,0c0,0,0,0-0.1,0l-1.3-0.5l0,1.2c0,0.3,0.2,0.5,0.4,0.6l0.3,0.2L391.9,208.1z M394.4,204.4
		l-0.2,0.2l-2.3-0.8l0.2-0.2L394.4,204.4z"/>
	<path d="M393.1,209.2l-0.2-0.2c-0.2-0.2-0.3-0.5-0.2-0.8c-0.3,0.1-0.6,0-0.8-0.2l-0.2-0.2l0.9-1l0.1,0.1c0.2,0.1,0.3,0.2,0.5,0.2
		c0,0,0.1-0.1,0.3-0.2c0.1-0.1,0.2-0.1,0.3,0c0.1,0.1,0.1,0.2,0,0.3c-0.1,0.2-0.2,0.3-0.2,0.3c0,0.1,0,0.3,0.2,0.4l0.2,0.2
		L393.1,209.2z M395,206.4C395,206.4,394.9,206.5,395,206.4l-0.6,0.1c0,0-0.1,0-0.1-0.1l0-0.6c0,0,0-0.1,0.1-0.1l0.5,0
		c0,0,0.1,0,0.1,0.1L395,206.4z"/>
	<path d="M395.7,210.5c-0.2,0.1-0.4,0.2-0.6,0.3c-0.3,0.1-0.6,0-0.7-0.1c-0.1-0.1-0.2-0.4-0.3-0.9c-0.4,0-0.7-0.1-0.8-0.3l-0.4-0.4
		l1-0.9l0.2,0.3c0-0.1,0.1-0.2,0.2-0.2c0.2-0.2,0.4-0.2,0.6-0.1l0-0.2l1-0.3c0.1,0,0.2,0,0.2,0c0,0,0,0.1,0.1,0.2
		c0.1,0.6,0.2,1.1,0.2,1.5C396.3,209.7,396.1,210.2,395.7,210.5z M395.1,209c0.1,0,0.1-0.1,0.1-0.2c0-0.1,0-0.2-0.1-0.2
		c-0.1-0.1-0.1-0.1-0.2-0.1c-0.1,0-0.2,0-0.2,0c0,0-0.1,0.1,0,0.2c0,0.1,0.1,0.2,0.1,0.2c0,0,0.1,0.1,0.2,0.1
		C395,209.1,395.1,209.1,395.1,209z M395.3,210.1c0.1-0.1,0.1-0.3,0.1-0.7c0,0,0,0,0,0c-0.1,0.1-0.3,0.2-0.4,0.1c0,0.1,0,0.2,0,0.3
		c0,0.1,0.1,0.2,0.1,0.3C395.1,210.2,395.2,210.2,395.3,210.1z"/>
	<path d="M396.6,213.6l-0.1-0.1c0-0.1-0.1-0.1-0.1-0.2l-0.2,0.2c-0.2,0.1-0.4,0.2-0.7,0.3c-0.3,0.1-0.5,0.1-0.7,0.1
		c-0.1,0-0.1,0-0.2-0.1l-0.8-1.2c-0.1-0.1-0.1-0.2,0-0.3c0.1,0,0.1,0,0.2,0c0.3,0.1,0.6,0.3,1.1,0.5c0.6,0.2,0.9,0.3,1.1,0.2
		c0.1-0.1,0.2-0.4,0.3-1l1.1-0.2c0.1,0,0.1,0,0.1,0.1c0,0.3-0.1,0.5-0.1,0.6c0,0.2,0,0.4,0.1,0.5l0.1,0.1L396.6,213.6z"/>
	<path d="M399.1,214.3c-1,0.6-1.8,0.4-2.4-0.6l-0.2-0.3l1.2-0.7l0.2,0.3c0.3,0.6,0.6,0.9,0.7,0.9c0.1,0,0.1,0,0.1,0
		c0,0,0.1-0.1,0-0.1c0,0,0,0,0,0c-0.1,0-0.2-0.2-0.3-0.4c-0.3-0.4-0.2-0.8,0.1-1c0.2-0.1,0.5-0.2,0.8-0.2c0.4,0,0.6,0.1,0.7,0.3
		c0.2,0.3,0.1,0.7-0.1,1.1C399.7,213.9,399.4,214.1,399.1,214.3z M399.3,213.4c0.1,0,0.1-0.1,0.1-0.2c0-0.1,0-0.2-0.1-0.2
		c0-0.1-0.1-0.1-0.1-0.1c-0.1,0-0.1,0-0.2,0c-0.1,0,0,0.2,0.1,0.3C399.2,213.3,399.3,213.4,399.3,213.4z M401.1,212.4
		C401.1,212.4,401,212.5,401.1,212.4l-0.6-0.1c0,0-0.1,0,0-0.1l0.1-0.6c0,0,0-0.1,0.1,0l0.5,0.1c0,0,0.1,0,0.1,0.1L401.1,212.4z"/>
	<path d="M399.2,218.9l-0.1-0.3c-0.2-0.4-0.1-0.8,0.3-1.1c-0.2,0-0.4,0-0.4-0.1c-0.1-0.2-0.1-0.4-0.1-0.7c0-0.4,0.1-0.6,0.3-0.7
		c0.2-0.1,0.5-0.1,0.7,0c0,0,0.3,0.1,0.9,0.4l0.2-0.2l0.9,0.4c0,0,0.1,0,0.1,0c0,0,0,0-0.1,0.1l-1.3,0.9c-0.2,0.2-0.3,0.3-0.3,0.5
		l0.1,0.2L399.2,218.9z M400,217.2l0.5-0.4c-0.3-0.2-0.5-0.2-0.6-0.2C399.8,216.6,399.8,216.8,400,217.2z"/>
	<path d="M400.2,222.2l-0.1-0.2c-0.1-0.2,0-0.4,0.2-0.7c-0.3-0.1-0.5-0.2-0.5-0.4c0-0.1,0-0.2,0-0.3c0-0.1,0.1-0.2,0.2-0.3
		c-0.3-0.1-0.5-0.2-0.5-0.4c-0.1-0.2,0-0.4,0.2-0.6c-0.3-0.1-0.5-0.3-0.6-0.5l-0.1-0.2l1.3-0.4l0.1,0.2c0,0.1,0.1,0.2,0.3,0.3
		c0.1,0,0.2,0,0.3,0c0.1,0,0.2,0.1,0.3,0.1c0,0.1,0,0.2-0.1,0.2c0,0-0.1,0.1-0.3,0.2c-0.1,0.1-0.1,0.2-0.1,0.3
		c0,0.1,0.1,0.2,0.2,0.2c0.1,0,0.2,0,0.3,0c0.1,0,0.2,0,0.2,0.1c0,0.1,0,0.2-0.1,0.2c-0.1,0-0.2,0.1-0.3,0.2
		c-0.1,0.1-0.1,0.2-0.1,0.3c0,0.1,0.1,0.2,0.2,0.2c0.1,0,0.2,0,0.3,0c0.1,0,0.2,0,0.2,0.2c0,0.1,0,0.2-0.1,0.2c0,0-0.1,0.1-0.3,0.2
		c-0.1,0.1-0.1,0.2-0.1,0.3l0.1,0.2L400.2,222.2z"/>
	<path d="M402.2,224.9c-0.4,0.1-0.7,0.1-1,0c-0.4-0.1-0.7-0.3-0.7-0.6c0-0.2,0.1-0.5,0.3-0.7c-0.3-0.1-0.4-0.2-0.5-0.4
		c0-0.3,0.1-0.5,0.3-0.7c-0.3-0.1-0.5-0.2-0.5-0.5l0-0.2l1.3-0.2l0,0.2c0,0.1,0.1,0.2,0.2,0.3c0.1,0,0.2,0,0.3,0
		c0.1,0,0.2,0.1,0.2,0.2c0,0.1,0,0.2-0.1,0.2l-0.3,0.1c-0.1,0.1-0.1,0.2-0.1,0.3c0,0.1,0.1,0.2,0.2,0.2c0.1,0,0.2,0,0.3,0
		c0.1,0,0.2,0.1,0.2,0.2c0,0.1,0,0.2-0.2,0.2l-0.3,0.1c-0.1,0.1-0.2,0.2-0.1,0.3c0,0.2,0.1,0.3,0.2,0.2c0.1,0,0.2,0,0.2-0.1
		c0,0,0.1-0.1,0.2-0.1l0.5,0.3c0.1,0,0.1,0.1,0,0.1C402.7,224.7,402.5,224.8,402.2,224.9z"/>
	<path d="M400.7,228l0-0.3c-0.7,0-1.2-0.2-1.5-0.5c-0.1,0-0.1-0.1-0.1-0.2l-0.1-1.4c0-0.2,0.1-0.3,0.2-0.3c0.1,0,0.1,0,0.2,0.1
		c0.1,0.3,0.3,0.6,0.6,0.9c0.3,0.5,0.6,0.7,0.7,0.7c0-0.4,0-0.7,0-0.8c0.1-0.3,0.3-0.4,0.7-0.4c0.4,0,0.7,0,1,0.1
		c0.4,0.1,0.7,0.4,0.7,0.7c0,0.4-0.3,0.8-1,0.9l0,0.4L400.7,228z M401.8,227c0.1,0,0.1-0.1,0.2-0.2c0.1-0.1,0.1-0.2,0.1-0.2
		c0-0.2-0.1-0.3-0.2-0.3c-0.1,0-0.1,0.1-0.1,0.3C401.8,226.9,401.8,227,401.8,227z"/>
	<path d="M401.6,230.2c-0.3,0-0.5-0.1-0.7-0.3c-0.2-0.2-0.3-0.4-0.3-0.7c0-0.3,0.2-0.6,0.5-0.8c-0.3-0.2-0.4-0.4-0.4-0.6l0-0.2
		l1.4,0.1l0,0.1c0,0.3,0.1,0.4,0.2,0.4c0.2,0,0.4,0.1,0.6,0.2c0.2,0.2,0.3,0.4,0.3,0.7c0,0.4-0.2,0.7-0.7,0.8
		C402.3,230.2,401.9,230.3,401.6,230.2z M401.8,229.8c0.1,0,0.3,0,0.4-0.1c0.2-0.1,0.3-0.2,0.3-0.3c0-0.1,0-0.1-0.1-0.2
		c0,0-0.1-0.1-0.2-0.1c-0.2,0-0.3,0-0.5,0.1c-0.2,0.1-0.3,0.2-0.3,0.3C401.6,229.7,401.7,229.8,401.8,229.8z"/>
</g>
<g>
	<g>
		<path d="M363.9,254.8c0.4,0.2,1,0.4,1.6,0.4c0.9,0,1.4-0.5,1.4-1.1c0-0.6-0.4-1-1.3-1.3c-1.1-0.4-1.8-1-1.8-1.9
			c0-1,0.9-1.8,2.2-1.8c0.7,0,1.2,0.2,1.5,0.3l-0.2,0.7c-0.2-0.1-0.7-0.3-1.3-0.3c-0.9,0-1.3,0.5-1.3,1c0,0.6,0.4,0.9,1.3,1.3
			c1.1,0.4,1.7,1,1.7,2c0,1-0.8,1.9-2.3,1.9c-0.6,0-1.4-0.2-1.7-0.4L363.9,254.8z"/>
		<path d="M369,255.9v-6.7h0.9l2.1,3.4c0.5,0.8,0.9,1.5,1.2,2.2l0,0c-0.1-0.9-0.1-1.7-0.1-2.8v-2.8h0.8v6.7h-0.9l-2.1-3.4
			c-0.5-0.7-0.9-1.5-1.3-2.2l0,0c0,0.8,0.1,1.7,0.1,2.8v2.9H369z"/>
		<path d="M376.6,253.8l-0.7,2.1H375l2.3-6.7h1l2.3,6.7h-0.9l-0.7-2.1H376.6z M378.8,253.1l-0.7-1.9c-0.1-0.4-0.2-0.8-0.3-1.2h0
			c-0.1,0.4-0.2,0.8-0.3,1.2l-0.7,1.9H378.8z"/>
		<path d="M386.1,255.7c-0.3,0.2-1,0.3-1.8,0.3c-1.9,0-3.3-1.2-3.3-3.4c0-2.1,1.4-3.5,3.5-3.5c0.8,0,1.4,0.2,1.6,0.3l-0.2,0.7
			c-0.3-0.2-0.8-0.3-1.4-0.3c-1.6,0-2.6,1-2.6,2.8c0,1.6,0.9,2.7,2.6,2.7c0.5,0,1.1-0.1,1.4-0.3L386.1,255.7z"/>
	</g>
</g>
</svg>
